<?xml version="1.0" standalone="no"?>
<!DOCTYPE svg PUBLIC "-//W3C//DTD SVG 1.1//EN" "http://www.w3.org/Graphics/SVG/1.1/DTD/svg11.dtd" >
<svg xmlns="http://www.w3.org/2000/svg" xmlns:xlink="http://www.w3.org/1999/xlink" version="1.1">
<metadata>
Created by FontForge 20150804 at Wed Mar  6 10:18:03 2019
 By cloudconvert
Copyright (c) 2018, Adam Bradley
</metadata>
<defs>
<font id="Ionicons" horiz-adv-x="416" >
  <font-face 
    font-family="Ionicons"
    font-weight="400"
    font-stretch="normal"
    units-per-em="512"
    panose-1="2 0 5 3 0 0 0 0 0 0"
    ascent="448"
    descent="-64"
    bbox="-1.75758 -64 512.8 448"
    underline-thickness="25"
    underline-position="-76"
    unicode-range="U+F100-F4CD"
  />
<missing-glyph horiz-adv-x="187" 
d="M17 0v341h136v-341h-136zM34 17h102v307h-102v-307z" />
    <glyph glyph-name=".notdef" horiz-adv-x="187" 
d="M17 0v341h136v-341h-136zM34 17h102v307h-102v-307z" />
    <glyph glyph-name=".null" horiz-adv-x="0" 
 />
    <glyph glyph-name="nonmarkingreturn" horiz-adv-x="170" 
 />
    <glyph glyph-name="uniF100" unicode="&#xf100;" 
d="M298 208q16 0 16 -16t-16 -16h-74v-74q0 -16 -16 -16t-16 16v74h-74q-16 0 -16 16t16 16h74v74q0 16 16 16t16 -16v-74h74zM208 372q-74 0 -127 -53t-53 -127t53 -127t127 -53t127 53t53 127t-53 127t-127 53zM208 400q86 0 147 -61t61 -147t-61 -147t-147 -61t-147 61
t-61 147t61 147t147 61z" />
    <glyph glyph-name="uniF101" unicode="&#xf101;" 
d="M208 400q86 0 147 -61t61 -147t-61 -147t-147 -61t-147 61t-61 147t61 147t147 61zM298 176q16 0 16 16t-16 16h-74v74q0 16 -16 16t-16 -16v-74h-74q-16 0 -16 -16q0 -7 4 -11q5 -5 12 -5h74v-74q0 -7 5 -12q4 -4 11 -4q16 0 16 16v74h74z" />
    <glyph glyph-name="uniF102" unicode="&#xf102;" horiz-adv-x="257" 
d="M241 208q16 0 16 -16t-16 -16h-97v-96q0 -16 -16 -16q-7 0 -11 4q-5 5 -5 12v96h-96q-6 0 -11 5t-5 11q0 16 16 16h96v96q0 16 16 16t16 -16v-96h97z" />
    <glyph glyph-name="uniF103" unicode="&#xf103;" horiz-adv-x="348" 
d="M334 14q14 0 14 -13q0 -15 -14 -15h-320q-14 0 -14 15q0 13 14 13h6q11 0 12 7v1q5 46 21.5 79t34 45.5t31 24t13.5 21.5t-13.5 21.5t-30.5 24t-34 45.5t-22 79v1q-1 7 -12 7h-6q-14 0 -14 15q0 13 14 13h320q14 0 14 -15q0 -13 -14 -13h-5q-12 0 -13 -7v-1
q-5 -46 -21.5 -79t-34 -45.5t-31 -24t-13.5 -21.5t13.5 -21.5t30.5 -24t34 -45.5t22 -79v-1q1 -7 13 -7h5zM81 48q-3 -5 -1 -10.5t8 -5.5h172q6 0 8 5.5t-1 10.5q-10 27 -25 45t-26.5 24.5t-20 14.5t-8.5 18v55q0 8 9.5 17t25.5 22t25 26q3 4 1 8t-7 4h-133q-5 0 -7.5 -4
t0.5 -8q9 -13 25 -26t25.5 -22t9.5 -17v-55q0 -13 -13.5 -21.5t-34 -27.5t-32.5 -53z" />
    <glyph glyph-name="uniF104" unicode="&#xf104;" 
d="M208 400q86 0 147 -61t61 -147t-61 -147t-147 -61t-147 61t-61 147t61 147t147 61zM225 290q0 18 -17 18t-17 -18l3 -115q0 -15 14 -15t14 15zM208 94q8 0 13.5 5t5.5 13t-5.5 13.5t-13.5 5.5t-13.5 -5.5t-5.5 -13.5t5.5 -13t13.5 -5z" />
    <glyph glyph-name="uniF105" unicode="&#xf105;" horiz-adv-x="448" 
d="M0 352h448v-320h-448v320zM406 192q0 38 -3 70q-5 49 -52 53q-32 3 -127 3t-127 -3q-47 -4 -52 -53q-3 -32 -3 -70q0 -26 3 -70q3 -49 52 -53q35 -3 127 -3t127 3q49 4 52 53q3 43 3 70zM326 168l-1 3h46q0 -37 -16 -54q-17 -19 -54 -19q-16 0 -31 5q-11 4 -21 15
q-8 10 -13 28q-5 20 -5 46q0 27 6 45q7 21 15 29q10 10 24 15q15 5 30 5q32 0 49 -19t17 -54h-46v1q0 13 -7 21t-17 8q-21 0 -24 -26q-1 -10 -1 -26l1 -24q2 -26 24 -26q24 0 24 26v1zM171 168l-1 3h46q0 -37 -16 -54q-17 -19 -54 -19q-15 0 -30 5q-13 4 -22 15
q-8 10 -13 28q-5 20 -5 46q0 27 6 45q7 21 15 29q11 10 24 15q15 5 30 5q32 0 49 -19t17 -54h-45v1q0 13 -7 21t-17 8q-22 0 -25 -26q-1 -10 -1 -26l1 -24q2 -26 24 -26q24 0 24 26v1z" />
    <glyph glyph-name="uniF106" unicode="&#xf106;" 
d="M331 315q53 -53 73 -148l-171 -171q-95 20 -148 73t-73 148l171 171q95 -20 148 -73zM296 160q9 9 1 18q-4 4 -11 4q-4 0 -8 -4l-19 -19l-16 16l20 19q6 6 3 13q0 1 -0.5 1t-0.5 1q-5 8 -13 7q-4 0 -8 -4l-19 -19l-16 16l20 19q6 6 3 13l-3 6q-5 5 -12 3q-3 0 -7 -4
l-19 -19l-16 16l20 19q6 6 3 13q0 1 -0.5 1t-0.5 1q-5 8 -13 7q-4 0 -8 -4l-19 -19l-15 15q-9 9 -18 0t0 -18l15 -15l-19 -19q-7 -7 -4 -13q0 -1 0.5 -1t0.5 -1q5 -8 14 -7q3 0 7 4l20 19l15 -16l-19 -19q-7 -7 -4 -13q0 -1 0.5 -1t0.5 -1q5 -8 14 -7q3 0 7 4l19 19l16 -16
l-20 -19q-6 -6 -3 -13q0 -1 0.5 -1t0.5 -1q5 -8 13 -7q4 0 8 4l19 19l16 -16l-20 -19q-5 -5 -3 -13q2 -4 3 -5q6 -6 12 -4q3 0 7 4l19 19l15 -15q9 -9 18 0t0 18l-15 15zM347 -16q-48 0 -85 6l148 148q11 -71 3 -144q0 -7 -7 -7q-30 -3 -59 -3zM69 400q48 0 85 -6l-148 -148
q-11 71 -3 144q0 7 7 7q30 3 59 3z" />
    <glyph glyph-name="uniF107" unicode="&#xf107;" horiz-adv-x="384" 
d="M288 384q40 0 68 -28t28 -68v-192q0 -40 -28 -68t-68 -28h-192q-40 0 -68 28t-28 68v192q0 40 28 68t68 28h192zM120 144q20 0 34 14t14 34t-14 34t-34 14t-34 -14t-14 -34t14 -34t34 -14zM264 144q20 0 34 14t14 34t-14 34t-34 14t-34 -14t-14 -34t14 -34t34 -14z" />
    <glyph glyph-name="uniF108" unicode="&#xf108;" 
d="M202 77h179q-39 -58 -103 -81l-22 22l-55 55q-1 1 -0.5 2.5t1.5 1.5zM119 113q0 1 1 2t2 0l127 -127q-17 -4 -41 -4q-47 0 -89 20v109zM208 400q48 0 90 -20v-109q0 -1 -1.5 -2t-2.5 0l-126 127q17 4 40 4zM20 281h110q1 0 1.5 -1t-0.5 -2l-127 -127q-4 17 -4 41
q0 47 20 89zM139 388l77 -77q1 -1 0.5 -2.5t-1.5 -1.5h-180q40 59 104 81zM119 227q0 2 1 3l50 50q1 1 3 1h71q1 0 2 -1l50 -50q2 -2 2 -3v-70q0 -1 -2 -3l-50 -50q-1 -1 -2 -1h-71q-2 0 -3 1l-50 50q-1 1 -1 3v70zM412 232q4 -17 4 -40q0 -47 -20 -89h-109q-1 0 -1.5 1
t0.5 2zM324 365q57 -39 80 -104l-77 -77q-1 -1 -2 0t-1 2v179zM12 122l78 78q1 1 2 0t1 -2v-179q-59 40 -81 103z" />
    <glyph glyph-name="uniF109" unicode="&#xf109;" horiz-adv-x="448" 
d="M328 144v48h16v-48h-16zM80 144v48h82l48 -48h-130zM332 388q53 -29 84.5 -81.5t31.5 -114.5q0 -93 -65.5 -158.5t-158.5 -65.5q-35 0 -68 11q-1 1 -2.5 1t-2.5 1q-19 6 -35 15h-1q-52 29 -83.5 81.5t-31.5 114.5q0 93 65.5 158.5t158.5 65.5q35 0 68 -11q1 -1 2.5 -1
t2.5 -1q19 -6 35 -15zM224 22q55 0 100 32l-238 238q-32 -45 -32 -100q0 -48 24.5 -88t65.5 -62q16 -8 19 -9q1 -1 2.5 -1t2.5 -1q9 -3 29 -7q9 -2 27 -2zM362 93q32 45 32 99q0 49 -25 89.5t-66 61.5q-12 6 -18 8q-1 1 -2.5 1t-2.5 1q-9 3 -29 7q-9 2 -27 2q-54 0 -99 -32z
M320 192v-34l-34 34h34zM352 144v48h16v-48h-16zM328 235q16 -7 16 -30v-1h-16v1q0 13 -7 16q-8 4 -39 4h-3q-24 0 -33 13q-7 12 -2 29l-5 1q-5 1 -7 2q-26 11 -26 38q0 22 13.5 33t25.5 11v-16q-2 0 -6.5 -1t-10.5 -8t-6 -19q0 -17 16 -23l18 -3q5 0 7 -5q2 -6 0 -8
q-10 -14 -4 -22q4 -6 20 -6h3q32 0 46 -6zM368 204h-16q0 30 -7 42q-8 14 -25 14h-30q-4 0 -6 4t0 8q1 2 2 5.5t3 12t1 14.5q-2 17 -27 17v16q38 0 43 -30q3 -15 -3 -31h17q25 0 39 -22q9 -15 9 -50z" />
    <glyph glyph-name="uniF10A" unicode="&#xf10a;" horiz-adv-x="384" 
d="M371 310q13 -6 13 -14.5t-13 -14.5l-148 -67q-13 -6 -31 -6t-31 6l-148 67q-13 6 -13 14.5t13 14.5l150 68q29 13 59 0zM161 73q13 -6 31 -6t31 6l100 45q7 3 13 0l35 -16q13 -6 13 -14.5t-13 -14.5l-148 -67q-13 -6 -31 -6t-31 6l-148 67q-13 6 -13 14.5t13 14.5l35 16
q7 4 14 0zM371 206q13 -6 13 -14.5t-13 -14.5l-148 -67q-13 -6 -31 -6t-31 6l-148 67q-13 6 -13 14.5t13 14.5l32 15q7 3 13 0l108 -49q26 -9 52 0l108 49q6 3 13 0z" />
    <glyph glyph-name="uniF10B" unicode="&#xf10b;" horiz-adv-x="480" 
d="M218 150l-20 62l64 21l20 -62zM218 150l-20 62l64 21l20 -62zM460 258q37 -124 3.5 -186t-157.5 -100q-124 -37 -186 -3.5t-100 157.5q-37 124 -3.5 186t157.5 100q124 37 186 3.5t100 -157.5zM377 151q10 3 14 12.5t1 19.5q-7 22 -31 15l-31 -10l-21 62l31 10
q10 3 14.5 12.5t1.5 19.5t-12.5 14t-19.5 1l-31 -10l-10 32q-3 10 -12.5 14.5t-19.5 1.5t-14.5 -12.5t-1.5 -19.5l11 -32l-64 -21l-11 32q-3 10 -12 14.5t-19 1.5t-14.5 -12.5t-1.5 -19.5l11 -32l-31 -10q-10 -3 -14.5 -12.5t-1.5 -19.5q5 -17 23 -17q6 0 9 1l31 11l20 -62
l-31 -11q-22 -7 -15 -31q5 -17 23 -17q5 0 8 1l31 11l11 -33q5 -17 23 -17q2 0 8 2q10 3 14.5 12t1.5 19l-11 32l64 22l11 -33q5 -16 23 -16q6 0 9 1q22 7 15 31l-10 32z" />
    <glyph glyph-name="uniF10C" unicode="&#xf10c;" 
d="M208 400q86 0 147 -61t61 -147t-61 -147t-147 -61t-147 61t-61 147t61 147t147 61zM129 103l18 30q-4 12 -20 12h-2q-3 0 -7 -4l-14 -23q-7 -13 5 -20q4 -2 8 -2q8 0 12 7zM249 150q1 1 1 4q0 7 -4 14l-1 1q-5 9 -18 9h-54l37 62l16 28l18 30q7 13 -5 20q-13 7 -20 -5
l-9 -16l-10 16q-7 12 -20 5q-12 -7 -4 -20l17 -30l-53 -90h-45q-15 0 -15 -14q0 -15 14 -15h29h33zM322 149q14 0 14 15q0 14 -15 14h-41l-49 82q-4 -1 -8 -9q-9 -17 1 -36l22 -37l17 -29l27 -46q5 -7 12 -7q4 0 8 2q12 7 5 20l-19 31h26z" />
    <glyph glyph-name="uniF10D" unicode="&#xf10d;" horiz-adv-x="448" 
d="M395 149q53 -49 53 -70q0 -7 -6 -11q-5 -4 -34 -4h-28q-21 0 -26 2q-9 3 -18 9q-6 5 -31 32q-8 10 -17 15q-11 6 -19 -4q-7 -7 -7 -26t-6 -24q-4 -2 -6 -2q-8 -2 -33 -2q-19 0 -50 11t-55 38q-50 54 -82 120q-3 6 -12 23t-13.5 27.5t-4.5 15.5q0 9 10 9h66q13 0 19 -11
q1 -3 8.5 -20t14.5 -32q23 -44 41 -50q9 0 10 3q3 6 6 25q5 40 -5 67q-2 4 -11 9q-3 1 -7 2q-4 2 -4 3q7 9 19 12q14 4 40 4q39 0 48 -7q4 -4 5 -6q3 -6 1 -55q-1 -45 5 -54q2 -3 6 -3t6 1q16 8 40 52q16 31 21 44q6 16 14 16h74q12 0 16 -3t4 -11q0 -15 -32 -58
q-40 -53 -40 -59q0 -5 1 -8q2 -5 19 -20z" />
    <glyph glyph-name="uniF10E" unicode="&#xf10e;" 
d="M412 328h-408q-4 0 -4 4v20q0 14 9 23t23 9h352q14 0 23 -9t9 -23v-20q0 -4 -4 -4zM392 302q8 0 8 -8v-262q0 -14 -9 -23t-23 -9h-320q-14 0 -23 9t-9 23v262q0 8 8 8h368zM258 160q6 0 10.5 5t3.5 11q-2 12 -14 12h-100q-6 0 -10.5 -5t-3.5 -11q2 -12 14 -12h100z" />
    <glyph glyph-name="uniF10F" unicode="&#xf10f;" horiz-adv-x="426" 
d="M271 144v-1l99 -175h-103q-2 0 -2 1l-99 173v2l156 272h104zM179 232v-1l-81 -134q0 -1 -1 -1h-97l81 135v1l-59 104h96q2 0 2 -1z" />
    <glyph glyph-name="uniF110" unicode="&#xf110;" 
d="M100 237q14 13 27 0l81 -81l81 79q13 13 27 0q6 -6 6 -13q0 -8 -6 -14l-94 -94q-14 -12 -27 1l-95 95q-14 14 0 27zM0 192q0 86 61 147t147 61t147 -61t61 -147t-61 -147t-147 -61t-147 61t-61 147zM332 316q-52 52 -124 52t-124 -52t-52 -124t52 -124t124 -52t124 52
t52 124t-52 124z" />
    <glyph glyph-name="uniF111" unicode="&#xf111;" horiz-adv-x="256" 
d="M0 400h256v-123v0l-85 -85l85 -85v0v-123h-256v123v0l85 85l-85 85v0v123zM213 96l-85 85l-85 -85v-71h170v71zM128 203l85 85v72h-170v-72z" />
    <glyph glyph-name="uniF112" unicode="&#xf112;" 
d="M253 300q13 -14 0 -27l-81 -81l79 -81q13 -13 0 -27q-6 -6 -13 -6q-8 0 -14 6l-94 94q-12 14 1 27l95 95q14 14 27 0zM208 400q86 0 147 -61t61 -147t-61 -147t-147 -61t-147 61t-61 147t61 147t147 61zM332 68q52 52 52 124t-52 124t-124 52t-124 -52t-52 -124t52 -124
t124 -52t124 52z" />
    <glyph glyph-name="uniF113" unicode="&#xf113;" 
d="M208 400q86 0 147 -61t61 -147t-61 -147t-147 -61t-147 61t-61 147t61 147t147 61zM292 188q6 4 0 8l-137 83q-2 2 -4.5 0.5t-2.5 -4.5v-166q0 -3 2.5 -4.5t4.5 0.5z" />
    <glyph glyph-name="uniF114" unicode="&#xf114;" 
d="M163 300q13 14 27 0l95 -95q13 -13 1 -27l-94 -94q-6 -6 -14 -6q-7 0 -13 6q-13 14 0 27l80 81l-82 81q-14 13 0 27zM0 192q0 86 61 147t147 61t147 -61t61 -147t-61 -147t-147 -61t-147 61t-61 147zM32 192q0 -72 52 -124t124 -52t124 52t52 124t-52 124t-124 52
t-124 -52t-52 -124z" />
    <glyph glyph-name="uniF115" unicode="&#xf115;" horiz-adv-x="484" 
d="M438 370q20 0 33 -13t13 -33v-216q0 -20 -13 -33t-33 -13h-392q-20 0 -33 13t-13 33v216q0 20 13 33t33 13h392zM456 108v216q0 8 -5 13t-13 5h-392q-8 0 -13 -5t-5 -13v-216q0 -8 5 -13t13 -5h392q8 0 13 5t5 13zM422 320q12 0 12 -12v-184q0 -12 -12 -12h-360
q-12 0 -12 12v184q0 12 12 12h360zM356 42q14 0 14 -14t-14 -14h-228q-14 0 -14 14t14 14h228z" />
    <glyph glyph-name="uniF116" unicode="&#xf116;" 
d="M100 147q-14 13 0 27l95 95q13 13 27 1l94 -94q6 -6 6 -14q0 -7 -6 -13q-14 -13 -27 0l-81 79l-81 -81q-13 -13 -27 0zM208 -16q-86 0 -147 61t-61 147t61 147t147 61t147 -61t61 -147t-61 -147t-147 -61zM208 16q72 0 124 52t52 124t-52 124t-124 52t-124 -52t-52 -124
t52 -124t124 -52z" />
    <glyph glyph-name="uniF117" unicode="&#xf117;" horiz-adv-x="288" 
d="M104 284q9 -9 0 -18l-60 -61h231q13 0 13 -13t-13 -13h-231l60 -61q9 -9 0 -18t-18 0l-82 83q-2 2 -3 4t-1 5q0 5 4 9l82 83q9 9 18 0z" />
    <glyph glyph-name="uniF118" unicode="&#xf118;" horiz-adv-x="192" 
d="M188 152q9 -9 0 -18l-83 -82q-4 -4 -9 -4q-3 0 -5 1t-4 3l-83 82q-9 9 0 18q10 10 18 1l61 -61v231q0 13 13 13t13 -13v-231l61 60q9 9 18 0z" />
    <glyph glyph-name="uniF119" unicode="&#xf119;" horiz-adv-x="288" 
d="M184 284q9 9 18 0l82 -83q4 -4 4 -9q0 -3 -1 -5t-3 -4l-82 -83q-9 -9 -18 0q-10 10 -1 18l61 61h-231q-13 0 -13 13t13 13h231l-60 61q-9 9 0 18z" />
    <glyph glyph-name="uniF11A" unicode="&#xf11a;" horiz-adv-x="192" 
d="M188 232q-9 -9 -18 0l-61 60v-231q0 -13 -13 -13t-13 13v231l-61 -61q-8 -9 -18 1q-9 9 0 18l83 82q2 2 4 3t5 1q5 0 9 -4l83 -82q9 -9 0 -18z" />
    <glyph glyph-name="uniF11B" unicode="&#xf11b;" horiz-adv-x="231" 
d="M216 287q15 0 15 -16v-194q0 -21 -9 -42q-9 -20 -24 -35q-34 -32 -76 -32h-13q-44 0 -76 32q-33 33 -33 78v251q0 37 26 61q28 26 62 26q36 0 62 -26q26 -24 26 -61v-235q0 -26 -18 -44t-42 -18q-26 0 -43 17.5t-17 44.5v134q0 16 16 16q15 0 15 -16v-134q0 -14 9 -23
t20 -9t20 9.5t9 22.5v235q0 22 -17 39q-16 16 -40 16q-23 0 -41 -16q-17 -17 -17 -39v-251q0 -29 24 -55q23 -25 55 -25h13q34 0 56 24t22 55v194q0 16 16 16z" />
    <glyph glyph-name="uniF11C" unicode="&#xf11c;" horiz-adv-x="383" 
d="M151 302q9 -4 9 -14v-192q0 -10 -9 -14q-4 -2 -7 -2q-4 0 -10 4l-65 52h-53q-16 0 -16 16v80q0 16 16 16h53l65 53q4 3 10 3q3 0 7 -2zM383 192v0q0 -91 -65 -156q-4 -4 -9 -4q-4 0 -8 4q-9 8 0 17q58 56 58 139v0q0 83 -58 139q-9 9 0 17t17 0q65 -65 65 -156zM320 192
q0 -67 -46 -115q-4 -4 -9 -4q-4 0 -8 4q-9 9 -1 17q40 40 40 98v0q0 58 -40 98q-8 8 1 17t17 0q46 -48 46 -115zM223 266q30 -32 30 -74v0q0 -42 -30 -74q-3 -3 -9 -3q-5 0 -8 3q-8 8 0 17q23 23 23 57v0q0 34 -23 57q-8 9 0 17t17 0z" />
    <glyph glyph-name="uniF11D" unicode="&#xf11d;" 
d="M347 352q29 0 49 -20t20 -49v-180q0 -29 -20.5 -50t-48.5 -21h-165q-9 0 -17.5 1t-16.5 5t-13 7t-13.5 10.5t-12.5 11t-14.5 14.5t-14.5 15l-72 76q-8 10 -8 21t8 21q43 45 72 74q4 4 14 14.5t15 15t15 13t17.5 12t18.5 6.5t22 3h165zM329 139l-52 53l52 53q11 11 0 22
t-22 0l-53 -52l-53 52q-11 11 -22 0t0 -22l52 -53q-45 -46 -52 -53q-11 -11 0 -22t22 0l53 52l53 -52q11 -11 22 0t0 22z" />
    <glyph glyph-name="uniF11E" unicode="&#xf11e;" horiz-adv-x="256" 
d="M151 302q9 -4 9 -14v-192q0 -10 -9 -14q-4 -2 -7 -2q-4 0 -10 4l-65 52h-53q-16 0 -16 16v80q0 16 16 16h53l65 52q6 4 10 4q3 0 7 -2zM226 265q30 -32 30 -73v0q0 -42 -30 -74q-3 -3 -8 -3t-8 3q-8 8 0 17q22 22 22 57v0q0 34 -22 56q-9 9 0 18q8 8 16 -1z" />
    <glyph glyph-name="uniF11F" unicode="&#xf11f;" horiz-adv-x="448" 
d="M356 74v76h67l-18 -76h-49zM356 0v55h45l-6 -25q-9 -30 -39 -30zM233 0v56h104v-56h-104zM43 74l-17 76h66v-76h-49zM111 168v88h104v-88h-104zM233 168v88h104v-88h-104zM54 30l-7 26h45v-56q-29 0 -38 30zM111 0v56h104v-56h-104zM233 74v76h104v-76h-104zM111 74v76
h104v-76h-104zM432 256q8 0 13 -6t3 -14l-20 -68h-72v174q0 14 -14 14h-236q-14 0 -14 -14v-174h-72l-20 68q-2 8 3 14t13 6h48v96q0 14 9 23t23 9h256q14 0 23 -9t9 -23v-96h48z" />
    <glyph glyph-name="uniF120" unicode="&#xf120;" horiz-adv-x="480" 
d="M380 304q20 0 34 -14t14 -34v-128q0 -20 -14 -34t-34 -14h-332q-20 0 -34 14t-14 34v128q0 20 14 34t34 14h332zM400 128v128q0 8 -6 14t-14 6h-332q-8 0 -14 -6t-6 -14v-128q0 -8 6 -14t14 -6h332q8 0 14 6t6 14zM448 243q12 0 22 -16.5t10 -34.5t-10 -34.5t-22 -16.5
v102zM368 256q12 0 12 -12v-104q0 -12 -12 -12h-308q-12 0 -12 12v104q0 12 12 12h308zM203 140l45 61h-27l8 43l-45 -61h27z" />
    <glyph glyph-name="uniF121" unicode="&#xf121;" horiz-adv-x="480" 
d="M380 304q20 0 34 -14t14 -34v-128q0 -20 -14 -34t-34 -14h-332q-20 0 -34 14t-14 34v128q0 20 14 34t34 14h332zM400 128v128q0 8 -6 14t-14 6h-332q-8 0 -14 -6t-6 -14v-128q0 -8 6 -14t14 -6h332q8 0 14 6t6 14zM448 243q12 0 22 -16.5t10 -34.5t-10 -34.5t-22 -16.5
v102z" />
    <glyph glyph-name="uniF122" unicode="&#xf122;" horiz-adv-x="480" 
d="M380 304q20 0 34 -14t14 -34v-128q0 -20 -14 -34t-34 -14h-332q-20 0 -34 14t-14 34v128q0 20 14 34t34 14h332zM400 128v128q0 8 -6 14t-14 6h-332q-8 0 -14 -6t-6 -14v-128q0 -8 6 -14t14 -6h332q8 0 14 6t6 14zM448 243q12 0 22 -16.5t10 -34.5t-10 -34.5t-22 -16.5
v102zM368 256q12 0 12 -12v-104q0 -12 -12 -12h-308q-12 0 -12 12v104q0 12 12 12h308z" />
    <glyph glyph-name="uniF123" unicode="&#xf123;" horiz-adv-x="384" 
d="M0 256h85l107 112v-352l-107 112h-85v128zM288 192q0 -29 -14.5 -53t-38.5 -35v177q24 -12 38.5 -36.5t14.5 -52.5zM235 384q64 -15 106.5 -69t42.5 -123t-42.5 -123t-106.5 -69v45q47 14 76.5 55t29.5 92t-29.5 92t-76.5 55v45z" />
    <glyph glyph-name="uniF124" unicode="&#xf124;" horiz-adv-x="384" 
d="M381 400q3 0 3 -2l-3 -6l-3 -4q-2 -3 -4 -6.5t-4 -10t-3 -12.5v-310q0 -26 -18.5 -45.5t-44.5 -19.5h-208q-26 0 -45 19t-19 45v276q0 23 -4.5 28t-27.5 8q0 8 4 16t19.5 16t40.5 8h270h47zM48 371q12 -13 12 -47v-36h279v71v3q0 2 2 10h-7h-270q-10 0 -16 -1z" />
    <glyph glyph-name="uniF125" unicode="&#xf125;" 
d="M0 192q0 86 61 147t147 61t147 -61t61 -147t-61 -147t-147 -61t-147 61t-61 147zM289 235l-81 -79l-81 81q-13 13 -27 0t0 -27l95 -95q13 -13 27 -1l94 94q6 6 6 14q0 7 -6 13q-14 13 -27 0z" />
    <glyph glyph-name="uniF126" unicode="&#xf126;" horiz-adv-x="384" 
d="M48 286v-96h-26q-7 0 -12 5t-5 12q0 8 5.5 18.5t5.5 16.5v51q0 8 -8 16.5t-8 24.5v4q0 19 15 31t35 12q13 0 23 -2t16 6q15 17 36 17q16 0 26 -7q10 -6 17 3q16 18 44 18q18 0 33.5 -11t22.5 -28q4 -9 13 -9h1q16 0 27 -11t11 -27v-22q0 -2 -2 -2.5t-3 0.5q-5 4 -13 4
h-230q-10 0 -17 -7t-7 -17zM322 -4q14 0 14 -14t-14 -14h-276q-14 0 -14 14t14 14h276zM336 254q20 0 34 -14t14 -34v-96q0 -20 -14 -34t-34 -14h-32q0 -10 5 -30q2 -11 -5 -16q-4 -4 -11 -4h-214q-10 0 -15 8q-5 6 -3 14q3 18 3 30v214q0 16 16 16h208q16 0 16 -16v-24h32z
M356 110v96q0 8 -6 14t-14 6h-32v-136h32q8 0 14 6t6 14z" />
    <glyph glyph-name="uniF127" unicode="&#xf127;" horiz-adv-x="448" 
d="M93 159q-26 0 -46 -20q-19 -19 -19 -46t19 -46t46 -19t46 19q20 20 20 46q0 27 -20 47q-19 19 -46 19zM93 187q38 0 66 -28t28 -66t-28 -65.5t-66 -27.5t-65.5 27.5t-27.5 65.5t27.5 66t65.5 28zM288 320q-14 0 -23 9t-9 23t9 23t23 9t23 -9t9 -23t-9 -23t-23 -9z
M355 159q-26 0 -46 -20t-20 -46t20 -46q19 -19 46 -19t46 19t19 46q0 28 -19 47t-46 19zM355 187q38 0 65.5 -28t27.5 -66t-27.5 -65.5t-65.5 -27.5t-66 27.5t-28 65.5t28 66t66 28zM336 256q16 0 16 -16t-16 -16h-57q-5 0 -9.5 6t-13.5 21l-15 25l-49 -52q6 -5 19.5 -12.5
t21 -13.5t7.5 -12v-90q0 -16 -16 -16t-16 16v66q0 4 -1.5 7t-7 6.5t-11.5 6.5t-18.5 9.5t-23.5 12.5q-18 12 -18 27q0 14 9 23l72 69q9 9 22 9q16 0 27 -16l30 -60h48z" />
    <glyph glyph-name="uniF128" unicode="&#xf128;" horiz-adv-x="256" 
d="M250 115q12 -10 1 -23l-116 -120q-4 -4 -9 -4q-11 0 -11 11v170l-85 -74q-5 -4 -12.5 -3.5t-12.5 5.5q-11 13 2 24l108 91l-109 92q-13 11 -2 24t25 1l86 -73v169q0 11 11 11q5 0 9 -4l116 -121q11 -13 -1 -23l-88 -76zM151 347q-2 0 -3 -1v-119q0 -1 1 -2t2 0l63 53
q2 2 0 3zM148 38q0 -1 1 -1.5t2 0.5l63 65q2 2 0 3l-63 53q-1 1 -2 0t-1 -2v-118z" />
    <glyph glyph-name="uniF129" unicode="&#xf129;" 
d="M208 400q86 0 147 -61t61 -147t-61 -147t-147 -61t-147 61t-61 147t61 147t147 61zM251 111l-79 81l81 81q13 13 0 27t-27 0l-95 -95q-13 -13 -1 -27l94 -94q6 -6 14 -6q7 0 13 6q13 14 0 27z" />
    <glyph glyph-name="uniF12A" unicode="&#xf12a;" horiz-adv-x="400" 
d="M296 26q27 -24 63 -36q1 -1 1 -2.5t-2 -1.5q-26 2 -62 12q-31 -14 -96 -14q-60 0 -96 14q-25 -7 -62 -12q-2 0 -2 1.5t1 2.5q16 5 31.5 14t23.5 16l8 6q43 -15 96 -15t96 15zM390 185q10 -5 10 -16q0 -5 -1 -7l-55 -136q-12 0 -26.5 5.5t-22.5 10.5l-8 6q-31 -15 -79 -19
h-8h-8q-48 4 -79 19q-29 -22 -57 -22l-55 136q-1 2 -1 7q0 11 10 16l187 85q3 2 6 0zM156 160q12 0 12 22t-12 22t-12 -22t12 -22zM244 160q12 0 12 22t-12 22t-12 -22t12 -22zM336 321l18 -97q1 -2 -1 -3.5t-4 -0.5l-26 11q-2 0 -2 3l-16 86q-4 16 -16 16h-177
q-14 0 -17 -16l-16 -86q0 -3 -2 -3l-25 -11q-2 -1 -4.5 0.5t-1.5 3.5l18 97q9 47 40 47h34l2 8q7 24 31 24h57q24 0 31 -24l2 -8h35q30 0 40 -47z" />
    <glyph glyph-name="uniF12B" unicode="&#xf12b;" 
d="M0 192q0 86 61 147t147 61t147 -61t61 -147t-61 -147t-147 -61t-147 61t-61 147zM244 192l-79 -81q-13 -13 0 -27q6 -6 13 -6q8 0 14 6l94 94q12 14 -1 27l-95 95q-14 14 -27 0t0 -27z" />
    <glyph glyph-name="uniF12C" unicode="&#xf12c;" horiz-adv-x="384" 
d="M207 97l15 -75q1 -3 1 -8q0 -13 -9 -21.5t-23 -8.5t-23 8.5t-9 21.5q0 1 0.5 3.5t0.5 3.5l15 79q3 12 16 12q14 0 16 -15zM242 93zM325 62q7 -6 7 -16.5t-7 -18.5q-8 -7 -18.5 -7t-16.5 7q-2 2 -3 4l-45 62q-5 8 2 15q6 8 16 1l60 -43q1 0 2.5 -2t2.5 -2zM308 113z
M371 128q13 0 13 -18q0 -7 -6 -12t-12 -3l-57 18h-1q-5 4 -4 9q2 6 8 6h59zM75 113zM75 113l-58 -18q-6 -1 -11.5 3.5t-5.5 11.5q0 18 12 18h60q6 0 8 -6q1 -5 -5 -9zM124 109q7 6 16 -1q7 -7 2 -15l-45 -61q-2 -4 -3 -5q-18 -17 -35 0t0 35q3 3 5 4zM295 309q0 -49 -51 -81
q-7 -4 -29.5 -17t-34 -21t-25.5 -25t-20 -37l-6 3t-13.5 9.5t-16 17t-11 26t-1.5 35.5q3 22 23 45.5t41.5 40.5t36.5 42.5t11 52.5q25 0 60.5 -26.5t35.5 -64.5zM295 188q-20 -60 -80 -60q-28 0 -47 28q14 17 47 34l12 6q12 6 17 10q38 25 48 46q4 -11 5 -31.5t-2 -32.5z
M98 276q-13 8 -11 29q1 9 17 29t15 36q28 4 45 -26q-6 -11 -28 -32q-35 -32 -38 -36z" />
    <glyph glyph-name="uniF12D" unicode="&#xf12d;" 
d="M208 -16q-86 0 -147 61t-61 147t61 147t147 61t147 -61t61 -147t-61 -147t-147 -61zM208 228l81 -79q13 -13 27 0q6 6 6 13q0 8 -6 14l-94 94q-14 12 -27 -1l-95 -95q-14 -14 0 -27t27 0z" />
    <glyph glyph-name="uniF12E" unicode="&#xf12e;" horiz-adv-x="256" 
d="M0 368q0 14 9 23t23 9h192q14 0 23 -9t9 -23v-380q0 -7 -6 -3l-117 92q-5 3 -10 0l-117 -92q-6 -4 -6 3v380z" />
    <glyph glyph-name="uniF12F" unicode="&#xf12f;" horiz-adv-x="256" 
d="M254 5q7 -12 -5 -19q-4 -2 -7 -2q-7 0 -12 7l-228 388q-7 12 5 19q13 7 20 -5zM197 135l-53 89h104q5 0 7.5 -5t-0.5 -9zM192 411l-51 -182l-42 72l86 113q2 3 5 1.5t2 -4.5zM59 249l53 -89h-104q-5 0 -7 5t1 9zM64 -27l51 182l42 -72l-86 -113q-2 -3 -5 -1.5t-2 4.5z
" />
    <glyph glyph-name="uniF130" unicode="&#xf130;" horiz-adv-x="448" 
d="M259 234q20 -34 17 -85l-5 -22q-12 -7 -36 -7h-11q-16 1 -26 5t-12 7l-2 3q4 12 8 43q2 14 2 28.5t-1 21.5l-1 8q7 5 19 7q12 3 23 3q18 0 25 -12zM174 239l2 -32v-10q0 -1 -0.5 -4.5t-0.5 -5.5q0 -10 -1 -15l-2 -10l-10 -34q-77 -80 -110 -80q-21 0 -36.5 43.5
t-15.5 100.5q0 56 16 100t36 44q25 0 65 -32.5t57 -64.5zM396 336q20 0 36 -44t16 -100q0 -57 -15.5 -100.5t-36.5 -43.5q-24 0 -57 29.5t-49 49.5q4 5 5 22v9v8q0 13 -4 33l-3 11q-3 10 -10 24l-2 4l1 1q18 32 55.5 64.5t63.5 32.5z" />
    <glyph glyph-name="uniF131" unicode="&#xf131;" horiz-adv-x="288" 
d="M0 256h85l107 112v-352l-107 112h-85v128zM288 192q0 -29 -14.5 -53t-38.5 -35v177q24 -12 38.5 -36.5t14.5 -52.5z" />
    <glyph glyph-name="uniF132" unicode="&#xf132;" horiz-adv-x="448" 
d="M118 165q41 0 70 -29.5t20 -72.5q-14 -64 -90 -77q-12 -2 -22 -2q-73 0 -95 33q-2 4 1 6q32 14 32 47q0 39 23 67t61 28zM436 388q23 -23 5 -45l-145 -165q-8 -10 -8 -20v-1q0 -9 -6 -15l-45 -52q-5 -4 -8 -1q-2 2 -2 5q0 36 -25.5 59.5t-61.5 26.5q-3 0 -5 4q-2 3 2 7
l53 43q6 6 16 6v0q12 0 20 8l165 145q8 7 19 7q14 0 26 -12z" />
    <glyph glyph-name="uniF133" unicode="&#xf133;" horiz-adv-x="320" 
d="M193 45q6 0 10 -5t3 -11q-8 -37 -46 -37q-39 0 -47 37q-1 6 3 11t10 5q10 0 12 -10q1 -6 5 -11q6 -6 17 -6q13 0 16 6q4 5 5 11q2 10 12 10zM316 96q7 -10 1.5 -21t-17.5 -11h-140h-140q-12 0 -17.5 11t1.5 21q2 2 13 14.5t16 21t11 32t6 55.5q0 64 23 98t56 42q7 2 7 6
v3q0 10 7 17t17 7v0q10 0 17 -7t7 -17v-3q0 -5 6 -6q33 -8 56.5 -42t23.5 -98q0 -32 6 -55.5t11 -32t16 -21t13 -14.5zM277 90q8 0 3 7q-15 18 -22 34q-14 32 -14 88q0 57 -21 87q-15 23 -39 27q-12 3 -18 11t-12 0t-19 -11q-24 -4 -39 -27q-21 -30 -21 -87q0 -56 -14 -88
q-7 -18 -21 -34q-5 -7 3 -7h234z" />
    <glyph glyph-name="uniF134" unicode="&#xf134;" horiz-adv-x="448" 
d="M343 321q-8 -22 -29 -43q-37 -37 -90 -37q-54 0 -91 37q-19 19 -28 43q47 63 119 63t119 -63zM90 298q17 -35 50 -58t72 -25v-215q-56 3 -100 55l-5 -5q-8 -6 -4 -17q5 -13 -5 -25q-16 -18 -34 -2t-2 34l3 3l2 1q6 21 27 37q-25 43 -29 89q-1 0 -3 -0.5t-3 -0.5
q-9 -1 -12 -9q-7 -18 -25 -16q-20 2 -22 22q-1 11 6.5 18.5t17.5 7.5h3l12 6q14 4 25 4q1 32 13 65q-12 8 -15 11q-7 6 -12 14q-4 5 -6 7q-2 1 -6 5q-10 10 -3 27q5 9 14.5 12t18.5 -2q19 -11 10 -31q3 -6 6 -9zM424 192q10 0 17.5 -7.5t6.5 -18.5q-2 -20 -22 -22
q-17 -2 -24 15q-3 8 -13 10q-1 0 -3 0.5t-3 0.5q-4 -47 -29 -90q21 -16 27 -36q1 0 2 -1l3 -3q16 -18 -2 -34t-34 2q-10 11 -5 24q4 12 -4 18q-2 1 -5 4q-43 -51 -100 -54v215q39 2 72 25t50 57q4 2 6 4l6 9q-9 20 10 31q23 11 33 -9q11 -23 -9 -33q-4 -2 -6 -6
q-6 -10 -12 -15q-3 -3 -15 -11q12 -33 13 -65q11 0 25 -4l12 -6h3z" />
    <glyph glyph-name="uniF135" unicode="&#xf135;" 
d="M208 400q86 0 147 -61t61 -147t-61 -147t-147 -61t-147 61t-61 147t61 147t147 61zM208 64q50 0 87 34t41 83q0 11 -10 11t-10 -9q-3 -41 -34 -69.5t-73 -29.5q-44 -1 -76 30.5t-33 75.5q-1 45 31 77.5t77 32.5v-42q0 -4 4 -6.5t8 -0.5l73 47q4 2 4 6.5t-4 6.5l-73 53
q-4 3 -8 0.5t-4 -7.5v-37q-53 0 -90.5 -37.5t-37.5 -90.5t37.5 -90.5t90.5 -37.5z" />
    <glyph glyph-name="uniF136" unicode="&#xf136;" 
d="M393 317q7 5 12 -1q13 -19 11 -34q-3 -33 -30 -60q-30 -30 -72 -30q-16 0 -32 8q-4 2 -9 2q-6 0 -11 -5l-188 -200q-12 -13 -30 -13t-31 13t-13 31t13 30q192 181 200 188q7 7 2 20q-24 55 23 104q26 27 60 30h2q16 0 32 -11q7 -6 1 -12l-45 -45q-1 -1 -1 -3l8 -47
q0 -3 3 -3l47 -8q2 0 3 1zM55 19q9 9 0 20q-10 8 -20 0q-8 -10 0 -20q10 -8 20 0z" />
    <glyph glyph-name="uniF137" unicode="&#xf137;" horiz-adv-x="448" 
d="M376 224q32 0 52 -9t20 -23t-20 -23t-52 -9h-18l-65 2q-2 0 -2 -1l-97 -146q-4 -7 -14 -7h-23q-10 0 -6 11l50 143q0 2 -2 2l-121 3q-4 0 -7 -3l-38 -46q-5 -6 -12 -6h-17q-6 0 -4 6l20 68q3 6 0 12l-20 69q-2 5 4 5h17q7 0 12 -6l37 -45q3 -3 7 -3l122 2q2 0 2 2
l-50 143q-4 11 6 11h23q10 0 14 -7l97 -146q0 -1 2 -1l65 2h18z" />
    <glyph glyph-name="uniF138" unicode="&#xf138;" horiz-adv-x="296" 
d="M296 259q0 -38 -30 -80q-5 -6 -16 -16t-16 -19q-16 -28 -18 -56q0 -6 -5 -10.5t-11 -4.5h-10q-4 0 -4 4v94q0 9 3 15l22 42q2 5 -0.5 10t-8.5 5q-5 0 -9 -6l-26 -51q-3 -6 -3 -14v-95q0 -4 -4 -4h-24q-4 0 -4 4v95q0 8 -3 14l-26 51q-3 6 -9 6t-9 -5t0 -10l21 -42
q3 -6 3 -14v-95q0 -4 -4 -4h-9q-16 0 -16 15q-2 27 -19 56q-5 9 -15.5 19t-15.5 16q-30 42 -30 80q0 58 44.5 99.5t103.5 41.5t103.5 -41.5t44.5 -99.5zM130 -16q-14 0 -14 14t14 14h36q14 0 14 -14t-14 -14h-36zM110 28q-14 0 -14 14t14 14h76q14 0 14 -14t-14 -14h-76z
" />
    <glyph glyph-name="uniF139" unicode="&#xf139;" horiz-adv-x="448" 
d="M426 240q9 0 15.5 -6.5t6.5 -15.5v-180q0 -9 -6.5 -15.5t-15.5 -6.5t-15.5 6.5t-6.5 15.5v6q0 4 -4 4h-352q-4 0 -4 -4v-6q0 -9 -6.5 -15.5t-15.5 -6.5t-15.5 6.5t-6.5 15.5v180q0 9 6.5 15.5t15.5 6.5t15.5 -6.5t6.5 -15.5q0 -2 2 -2h356q2 0 2 2q0 9 6.5 15.5t15.5 6.5
zM52 234q-8 0 -8 8v94q0 14 9 23t23 9h296q14 0 23 -9t9 -23v-94q0 -8 -8 -8h-22q-4 0 -4 4v13q0 16 -16 16h-98q-16 0 -16 -16v-13q0 -4 -4 -4h-24q-4 0 -4 4v13q0 16 -16 16h-98q-16 0 -16 -16v-13q0 -4 -4 -4h-22z" />
    <glyph glyph-name="uniF13A" unicode="&#xf13a;" horiz-adv-x="320" 
d="M14 31q3 -4 6.5 -6t9.5 -2.5t9.5 -0.5h15h17.5q0 -22 -3 -22h-55q-5 0 -6 29q0 2 2 3t4 -1zM306 31q2 2 4 1t2 -3q-1 -29 -6 -29h-55q-3 0 -3 22h17.5h15t9.5 0.5t9.5 2.5t6.5 6zM288 384q14 0 23 -9t9 -23v-276q0 -16 -12 -28t-28 -12h-240q-16 0 -28 12t-12 28v276
q0 14 9 23t23 9h8h240h8zM66 72q20 2 22 22q1 11 -7 19t-19 7q-20 -2 -22 -22q-1 -11 7 -19t19 -7zM142 150q4 0 4 4v140q0 4 -4 4h-98q-16 0 -16 -16v-116q0 -16 16 -16h98zM258 72q20 2 22 22q1 11 -7 19t-19 7q-20 -2 -22 -22q-1 -11 7 -19t19 -7zM292 166v116
q0 16 -16 16h-98q-4 0 -4 -4v-140q0 -4 4 -4h98q16 0 16 16zM277 328q15 0 15 14t-15 14h-234q-15 0 -15 -14t15 -14h234z" />
    <glyph glyph-name="uniF13B" unicode="&#xf13b;" horiz-adv-x="448" 
d="M337 302q46 0 78.5 -31t32.5 -78t-32.5 -79t-78.5 -32h-226q-46 0 -78.5 32t-32.5 79t32.5 78t78.5 31h226zM168 181v22q0 5 -5 5h-35v35q0 5 -5 5h-22q-5 0 -5 -5v-35h-36q-4 0 -4 -5v-21q0 -6 5 -6h35v-36q0 -4 5 -4h21q6 0 6 5v35h35q5 0 5 5zM288 172q8 0 13.5 6
t5.5 14q0 19 -19 19q-8 0 -14 -5.5t-6 -13.5t6 -14t14 -6zM330 131q8 0 14 5.5t6 13.5t-6 13.5t-14 5.5q-19 0 -19 -19t19 -19zM330 214q8 0 14 6t6 14t-6 13.5t-14 5.5q-19 0 -19 -19q0 -8 5.5 -14t13.5 -6zM373 172q8 0 13.5 6t5.5 14q0 19 -19 19t-19 -19q0 -8 5.5 -14
t13.5 -6z" />
    <glyph glyph-name="uniF13C" unicode="&#xf13c;" 
d="M322 44q14 0 14 -15q0 -13 -15 -13h-259q-14 0 -14 15q0 13 14 13h260zM351 330q29 -11 47 -35t18 -53q0 -39 -30 -67q-28 -27 -72 -27h-6q-24 -43 -58 -64q-32 -20 -44 -20h-60q-10 0 -33.5 12.5t-44.5 36.5q-28 33 -44 79q-21 57 -24 136q0 18 12 30q10 10 27 10h274
q16 0 26 -10q12 -12 12 -28zM322 176q28 2 47 21t19 45q0 19 -13 37q-10 13 -26 21q-6 -74 -27 -124z" />
    <glyph glyph-name="uniF13D" unicode="&#xf13d;" 
d="M360 396q56 -53 56 -126v0q0 -74 -56 -127q-4 -3 -9 -3q-4 0 -10 4q-4 4 -4 9q0 7 4 10q47 45 47 107q0 63 -47 107q-4 4 -4 9q0 6 4 10q6 4 10 4q3 0 9 -4zM303 351q35 -33 35 -81v0q0 -48 -35 -81q-4 -4 -9 -4q-6 0 -9 3q-4 4 -4 9t4 9q28 26 28 64t-28 64q-4 4 -4 9
q0 4 4 8t9 4t9 -4zM75 377q-47 -44 -47 -107t47 -107q4 -4 4 -10q0 -5 -4 -9q-6 -4 -10 -4q-5 0 -9 3q-56 53 -56 127v0q0 73 56 126q6 4 9 4q4 0 10 -4q4 -4 4 -10t-4 -9zM131 334q-28 -26 -28 -64t28 -64q4 -4 4 -9t-4 -9q-3 -3 -9 -3q-5 0 -9 4q-35 33 -35 81v0
q0 48 35 81q4 4 9 4t9 -4t4 -8q0 -5 -4 -9zM208 325q20 0 34 -14.5t14 -33.5q0 -36 -34 -46v-233q0 -14 -14 -14t-14 14v233q-34 10 -34 46q0 19 14 33.5t34 14.5z" />
    <glyph glyph-name="uniF13E" unicode="&#xf13e;" horiz-adv-x="384" 
d="M373 83q14 -14 9 -26t-13 -24q-14 -21 -30 -29q-30 -15 -95 22q-73 41 -125 93v0v0q-50 49 -93 125q-36 64 -21 94q9 18 28 31l24 13q12 5 26 -9q27 -27 45 -67q8 -15 8 -23.5t-8 -18.5q-1 -2 -6 -8.5t-5 -7.5t-3 -8.5t0 -9.5q5 -22 50 -67q44 -44 66 -49q12 -3 34 14
q10 8 18.5 8t23.5 -8q42 -20 67 -45z" />
    <glyph glyph-name="uniF13F" unicode="&#xf13f;" horiz-adv-x="448" 
d="M392 21q10 -10 0 -20q-1 -1 -4 -2l-3 -1q-8 -2 -13 3l-368 362q-10 10 0 20t20 0zM32 279q0 17 4 30l270 -265l-66 -52q-101 72 -161 154q-47 63 -47 133zM402 146q-24 -33 -52 -61l-282 277q33 30 76 30v0h1q61 0 95 -52q34 52 95 52h1v0q47 -1 79.5 -34t32.5 -79
q0 -71 -46 -133z" />
    <glyph glyph-name="uniF140" unicode="&#xf140;" 
d="M368 252q48 -41 48 -85v-76q0 -7 -6 -8q-50 -10 -202 -10t-202 10q-6 1 -6 8v76q0 18 8 35t16 26t24 24q42 92 100 92h120q58 0 100 -92zM142 320q-23 0 -42.5 -28.5t-19.5 -41.5h256q0 14 -18 42t-44 28h-132zM64 116q14 0 23 9t9 23t-9 23t-23 9t-23 -9t-9 -23t9 -23
t23 -9zM280 148q0 16 -16 16h-112q-16 0 -16 -16t16 -16h112q16 0 16 16zM352 116q14 0 23 9t9 23t-9 23t-23 9t-23 -9t-9 -23t9 -23t23 -9zM112 64q0 -24 -5 -24h-85q-6 0 -6 29q48 -5 96 -5zM304 64l96 5q0 -29 -5 -29h-86q-5 0 -5 24z" />
    <glyph glyph-name="uniF141" unicode="&#xf141;" horiz-adv-x="170" 
d="M146 416q24 0 24 -32h-170q0 32 24 32h122zM25 300q-25 28 -25 68h170q0 -38 -25 -68q-12 -14 -12 -31v-266q0 -16 -11.5 -25.5t-28.5 -9.5h-16q-17 0 -28.5 9.5t-11.5 25.5v266q0 17 -12 31zM57 210v-36q0 -12 8.5 -20t19.5 -8t19.5 8t8.5 20v36q0 12 -8.5 20t-19.5 8
t-19.5 -8t-8.5 -20zM65 175q0 8 6 14t14 6t14 -6t6 -14t-6 -14t-14 -6t-14 6t-6 14z" />
    <glyph glyph-name="uniF142" unicode="&#xf142;" horiz-adv-x="448" 
d="M448 320v-48h-448v48q0 14 9 23t23 9h384q14 0 23 -9t9 -23zM0 64v160h448v-160q0 -14 -9 -23t-23 -9h-384q-14 0 -23 9t-9 23zM142 112q-14 0 -14 -14t14 -14h164q14 0 14 14t-14 14h-164zM70 112q-14 0 -14 -14t14 -14h12q14 0 14 14t-14 14h-12z" />
    <glyph glyph-name="uniF143" unicode="&#xf143;" 
d="M0 365q0 14 10.5 24.5t24.5 10.5h346q14 0 24.5 -10.5t10.5 -24.5v-346q0 -14 -10.5 -24.5t-24.5 -10.5h-346q-14 0 -24.5 10.5t-10.5 24.5v346zM89 68q15 2 17 17q2 10 -5 17t-17 6q-15 -2 -17 -17q-2 -10 5 -17t17 -6zM89 172q15 2 17 17q2 10 -5 17t-17 6
q-15 -2 -17 -17q-2 -10 5 -17t17 -6zM89 276q15 2 17 17q2 10 -5 17t-17 6q-15 -2 -17 -17q-2 -10 5 -17t17 -6zM337 74q14 0 14 14t-14 14h-180q-14 0 -14 -14t14 -14h180zM337 178q14 0 14 14t-14 14h-180q-14 0 -14 -14t14 -14h180zM337 282q14 0 14 14t-14 14h-180
q-14 0 -14 -14t14 -14h180z" />
    <glyph glyph-name="uniF144" unicode="&#xf144;" horiz-adv-x="448" 
d="M434 92q14 0 14 -14t-14 -14h-420q-14 0 -14 14t14 14h420zM434 44q14 0 14 -14t-14 -14h-420q-14 0 -14 14t14 14h420zM413 368q14 0 24.5 -10.5t10.5 -24.5v-178q0 -14 -10.5 -24.5t-24.5 -10.5h-378q-14 0 -24.5 10.5t-10.5 24.5v178q0 14 10.5 24.5t24.5 10.5h378z
M82 152q14 0 14 14t-14 14h-36q-14 0 -14 -14t14 -14h36zM82 308q14 0 14 14t-14 14h-36q-14 0 -14 -14t14 -14h36zM224 164q33 0 56.5 23.5t23.5 56.5t-23.5 56.5t-56.5 23.5t-56.5 -23.5t-23.5 -56.5t23.5 -56.5t56.5 -23.5zM402 152q14 0 14 14t-14 14h-36q-14 0 -14 -14
t14 -14h36zM402 308q14 0 14 14t-14 14h-36q-14 0 -14 -14t14 -14h36zM171 242q0 22 15.5 37.5t37.5 15.5t37.5 -15.5t15.5 -37.5t-15.5 -37.5t-37.5 -15.5t-37.5 15.5t-15.5 37.5z" />
    <glyph glyph-name="uniF145" unicode="&#xf145;" 
d="M320 296q0 20 14 34t34 14t34 -14t14 -34t-14 -34t-34 -14t-34 14t-14 34zM368 230q30 0 48 20v-178q0 -14 -9 -23t-23 -9h-352q-14 0 -23 9t-9 23v219q0 1 1 2t2 0l108 -110q1 -1 0 -3l-75 -80q-9 -9 0 -18q4 -4 9 -4t9 4l75 80q1 2 3 0l18 -18q25 -25 58 -25
q36 0 58 24l18 19q2 2 3 0l75 -80q4 -4 9 -4t9 4q9 9 0 18l-75 80q-1 2 0 3l47 48q5 -1 16 -1zM302 296q0 -34 26 -53l-81 -82q-15 -16 -39 -16t-39 16l-157 160q9 7 20 7h278q-8 -16 -8 -32z" />
    <glyph glyph-name="uniF146" unicode="&#xf146;" 
d="M383 127l16 -58q1 -2 1 -3q0 -8 -8 -8l-4 1l-57 21q-6 2 -10 2q-3 0 -9 -2q-15 -5 -26 -8q-29 -8 -47 -8q-71 0 -121 50t-50 119q0 12 4 34q12 57 60 95t110 38q72 0 123 -49t51 -118q0 -47 -28 -90q0 -1 -1 -1l-1 -2q-3 -6 -3 -13zM270 56q2 0 6.5 1t6.5 2l-7 -9
q-48 -56 -120 -56q-28 0 -61 12l-6 2q-4 0 -6 -1l-56 -22q-1 0 -3 -1q-1 0 -5 2q-4 4 -3 8q12 60 12 62t-3 8q-25 37 -25 82q0 65 52 111l8 7q0 -2 -2 -6.5t-2 -6.5t-1 -6.5t-1 -6.5q-2 -12 -2 -21q0 -69 50 -119t121 -50q14 0 34 4q3 1 7 2.5t6 1.5z" />
    <glyph glyph-name="uniF147" unicode="&#xf147;" horiz-adv-x="384" 
d="M352 384q14 0 23 -9t9 -23v-320q0 -14 -9 -23t-23 -9h-320q-14 0 -23 9t-9 23v320q0 14 9 23t23 9h320zM356 36v312q0 8 -8 8h-312q-8 0 -8 -8v-312q0 -8 8 -8h312q8 0 8 8zM300 255q2 -2 0 -6l-134 -134q-5 -5 -12 -5q-6 0 -11 5l-56 56q-3 3 0 6l17 18q1 1 3 1t3 -1
l44 -45l122 123q1 1 3 1t3 -1z" />
    <glyph glyph-name="uniF148" unicode="&#xf148;" horiz-adv-x="384" 
d="M352 384q14 0 23 -9t9 -23v-320q0 -14 -9 -23t-23 -9h-320q-14 0 -23 9t-9 23v320q0 14 9 23t23 9h320zM300 250q2 2 -1 5l-17 18q-2 2 -3 2t-3 -2l-122 -123l-44 45q-1 1 -3 1t-3 -1l-18 -18q-3 -3 0 -6l56 -56q5 -5 12 -5t12 5z" />
    <glyph glyph-name="uniF149" unicode="&#xf149;" 
d="M315 255q2 -2 0 -6l-134 -134q-5 -5 -12 -5q-6 0 -11 5l-56 56q-3 3 0 6l17 18q1 1 3 1t3 -1l44 -45l122 123q1 1 3 1t3 -1zM208 372q-74 0 -127 -53t-53 -127t53 -127t127 -53t127 53t53 127t-53 127t-127 53zM208 400q86 0 147 -61t61 -147t-61 -147t-147 -61t-147 61
t-61 147t61 147t147 61z" />
    <glyph glyph-name="uniF14A" unicode="&#xf14a;" 
d="M208 400q86 0 147 -61t61 -147t-61 -147t-147 -61t-147 61t-61 147t61 147t147 61zM314 250q2 2 0 5l-17 18q-2 2 -3 2t-3 -2l-122 -123l-44 45q-1 1 -3 1t-3 -1l-18 -18q-3 -3 0 -6l56 -56q5 -5 12 -5t12 5z" />
    <glyph glyph-name="uniF14B" unicode="&#xf14b;" 
d="M414 394q10 -44 -21 -121t-81 -127q-17 -17 -40 -33q3 -36 -7 -59q-25 -57 -105 -70q-5 -1 -8.5 2.5t-2.5 7.5l9 81q-4 0 -10 0.5t-8 0.5q-5 0 -11 6l-32 31q-5 5 -5 11q0 1 -0.5 7.5t-0.5 10.5l-81 -8q-5 -1 -8 2.5t-2 7.5q13 80 69 105q24 10 60 7q16 23 33 40
q50 50 128.5 81t120.5 21q3 0 3 -4zM251 234q13 -13 30 -13t30 13t13 30.5t-13 30.5t-30 13t-30 -13t-13 -30.5t13 -30.5zM127 68q5 5 5 -3q-2 -16 -13 -27q-8 -8 -29.5 -13t-38.5 -6l-17 -1q2 67 20 85q11 11 27 13q2 0 3.5 -2t-0.5 -4q-6 -6 -8 -20q-2 -13 7.5 -22.5
t23.5 -7.5t20 8z" />
    <glyph glyph-name="uniF14C" unicode="&#xf14c;" horiz-adv-x="352" 
d="M60 288q0 16 16 16h200q16 0 16 -16v-240q0 -16 -16 -16h-200q-16 0 -16 16v240zM242 367q14 0 14 -15v-18q0 -2 -2 -2h-156q-2 0 -2 2v16q0 17 18 17h14q0 9 3 16q2 6 10 16q15 17 35 17q21 0 36 -17q8 -10 10 -16q2 -5 2 -16h18zM179 352q11 2 13 13q1 7 -5 13t-13 5
q-11 -2 -13 -14q-1 -7 4.5 -12.5t13.5 -4.5zM320 400q14 0 23 -9t9 -23v-368q0 -13 -9.5 -22.5t-22.5 -9.5h-288q-32 0 -32 56v344q0 14 9 23t23 9h76q1 0 2 -1t0 -2q-6 -7 -8 -16q0 -1 -1 -1h-1q-27 0 -27 -37v-9q0 -2 -2 -2h-22q-16 0 -16 -16v-297q0 -16 16 -16h253
q16 0 16 16v297q0 16 -16 16h-20q-2 0 -2 2v14v1q-2 34 -27 34h-1q-2 0 -2 1q-3 8 -7 13q-1 1 0 2t2 1h75z" />
    <glyph glyph-name="uniF14D" unicode="&#xf14d;" 
d="M283 139q11 -11 0 -22t-22 0l-53 52l-53 -52q-11 -11 -22 0t0 22l52 53q-46 47 -52 53q-11 11 0 22t22 0l53 -52l53 52q11 11 22 0t0 -22l-52 -53zM208 372q-74 0 -127 -53t-53 -127t53 -127t127 -53t127 53t53 127t-53 127t-127 53zM208 400q86 0 147 -61t61 -147
t-61 -147t-147 -61t-147 61t-61 147t61 147t147 61z" />
    <glyph glyph-name="uniF14E" unicode="&#xf14e;" 
d="M208 400q86 0 147 -61t61 -147t-61 -147t-147 -61t-147 61t-61 147t61 147t147 61zM261 117q11 -11 22 0t0 22l-52 53l52 53q11 11 0 22t-22 0l-53 -52l-53 52q-11 11 -22 0q-5 -5 -5 -11t5 -11l52 -53l-52 -53q-5 -5 -5 -11t5 -11q11 -11 22 0l53 52z" />
    <glyph glyph-name="uniF14F" unicode="&#xf14f;" horiz-adv-x="384" 
d="M324 416q25 0 42.5 -17.5t17.5 -42.5v-328q0 -25 -17.5 -42.5t-42.5 -17.5h-264q-25 0 -42.5 17.5t-17.5 42.5v328q0 25 17.5 42.5t42.5 17.5h264zM356 28v328q0 14 -9 23t-23 9h-264q-14 0 -23 -9t-9 -23v-328q0 -14 9 -23t23 -9h264q14 0 23 9t9 23zM296 272
q10 0 17 -7t7 -17v-192q0 -10 -7 -17t-17 -7h-208q-10 0 -17 7t-7 17v192q0 10 7 17t17 7h208zM78 324q-14 0 -14 14t14 14h100q14 0 14 -14t-14 -14h-100z" />
    <glyph glyph-name="uniF150" unicode="&#xf150;" 
d="M208 287q39 0 67 -28t28 -67t-28 -67t-67 -28t-67 28t-28 67t28 67t67 28zM301 322q0 18 12.5 30.5t30.5 12.5t30.5 -12.5t12.5 -30.5t-12.5 -31t-30.5 -13t-30.5 13t-12.5 31zM397 278q19 -43 19 -86q0 -86 -61 -147t-147 -61t-147 61t-61 147t61 147t147 61
q49 0 95 -23l4 -2l-3 -3q-14 -12 -19 -25l-1 -3l-3 2q-33 16 -73 16q-70 0 -120 -50t-50 -120t50 -120t120 -50t120 50t50 120q0 35 -13 65l-1 3l2 1q17 7 27 18l3 3z" />
    <glyph glyph-name="uniF151" unicode="&#xf151;" horiz-adv-x="426" 
d="M425 179q5 -62 -19 -65h-7q-14 -60 -61.5 -101t-110.5 -45q-52 -3 -97 21.5t-72 67.5l-16 -3q-13 -2 -25 17t-16 47t2.5 49.5t19.5 23.5l12 1q13 61 60.5 102t111.5 45q57 3 105 -25.5t72 -77.5q15 -31 17 -72q6 37 -8 72q27 3 32 -57zM47 184q17 -24 21 -58
q4 -37 -5 -61q19 21 13 64q-6 38 -29 55zM231 68q6 0 10.5 5t4.5 11t-5.5 10t-11.5 4q-14 0 -14 -16q0 -6 5 -10t11 -4zM312 72q6 0 10.5 5.5t4.5 11.5t-5.5 10t-11.5 4q-14 0 -14 -16q0 -6 5 -10.5t11 -4.5zM123 378h-1v4q0 4 5 9q4 4 14 9q1 0 1 0.5t1 0.5q1 1 4 1
q8 12 17 14q12 2 19 -4h2h2h16q6 -2 8 -3q1 0 3 1q6 0 6 -6t-6 -6v-1q0 -1 -1 -1l-1 -2q-1 -1 -4 -3q0 -1 -1 -1t-2 -1l-8 -5h-1l1 2l6 3l2 2t2 1l3 3q0 1 1 1l1 2q-5 2 -5 6q0 2 1 3q-2 1 -6 1h-11h-4h-1q-14 -2 -22 -4h-1q-1 -1 -2 -1q19 4 29 2q2 -4 4 -10q3 -20 -14 -28
l4 -24l-13 -2l-4 24q-19 0 -23 21q-1 6 0 10h-1q-1 -1 -2 -1q-2 -1 -11 -7q-5 -5 -5 -8v-2q0 -1 1 -1q2 -2 9 -4q3 -1 11 -1h1l2 -1h-3q-2 0 -6.5 0.5t-5.5 0.5q-2 0 -4 1q-4 0 -5 1q-2 2 -2 3v1v0z" />
    <glyph glyph-name="uniF152" unicode="&#xf152;" 
d="M208 400q86 0 147 -61t61 -147t-61 -147t-147 -61t-147 61t-61 147t61 147t147 61zM291 128q19 0 32 13.5t13 33.5q0 17 -10.5 30t-27.5 16q-3 29 -23.5 48t-48.5 19q-40 0 -62 -34q-8 4 -15 4q-15 0 -25.5 -11t-10.5 -26q-33 -10 -33 -46q0 -20 13 -33.5t32 -13.5h166z
" />
    <glyph glyph-name="uniF153" unicode="&#xf153;" horiz-adv-x="448" 
d="M412 240q22 -14 32 -26q4 -28 4 -62l-6 -93q-1 0 -2.5 -0.5t-2.5 -0.5q0 -5 -2 -21q0 -5 -6 -5h-64q-5 0 -5 3l-1 17h-12q-14 0 -18.5 4t-8.5 4q-2 0 -37 -1.5t-59 -1.5t-59 1.5t-37 1.5q-4 0 -8.5 -4t-18.5 -4h-11l-1 -17q0 -3 -5 -3h-65q-6 0 -6 5q-2 16 -2 21
q-1 0 -2.5 0.5t-2.5 0.5q-6 45 -6 93l4 62q8 9 32 25q2 1 2 4t-3 4l-5 1q-21 0 -26 5q-4 4 -4 9q0 6 5 11q4 4 23 6q7 1 11 -1q3 -2 3 -12q0 -5 6 -7q2 0 3 3q16 41 21 51q13 23 28 29q7 3 43 6q34 4 81 4q46 0 80 -4q40 -5 43 -6q16 -6 29 -29q0 -1 19 -49q2 -6 8 -4h1
q2 0 2 3q0 13 3 15q4 2 10 1q21 -3 24 -6q5 -5 5 -11q0 -5 -4 -9q-5 -5 -26 -5l-5 -1q-3 -1 -3 -3.5t2 -3.5zM91 293q-12 -27 -9 -33q2 -4 12 -3q39 3 130 3t130 -3q10 -1 12 3q2 5 -10 33q-2 5 -10 17t-20 13q-40 7 -102 7t-102 -7q-13 -2 -21 -13q-8 -12 -10 -17zM100 177
q2 0 20 3q3 1 3 3.5t-2 3.5q-17 12 -37 18q-26 7 -55 7q-4 0 -4 -3q0 -15 1 -19q1 -7 12 -11t16 -4q1 0 4.5 1.5t6.5 1.5q2 0 15.5 -0.5t19.5 -0.5zM310 104q11 2 18 11t0 19q-9 12 -49 18q-30 4 -55 4q-26 0 -56 -4q-36 -5 -49 -18q-8 -9 0 -18.5t19 -11.5q13 -2 86 -2
t86 2zM422 189v20q0 3 -3 3q-26 0 -56 -8q-22 -7 -37 -17q-3 -4 2 -7q18 -3 20 -3q6 0 19.5 0.5t15.5 0.5q3 0 6.5 -2t4.5 -2q5 0 16 4t12 11z" />
    <glyph glyph-name="uniF154" unicode="&#xf154;" horiz-adv-x="512" 
d="M437 218q32 -6 53.5 -32t21.5 -60q0 -38 -27 -66t-64 -28h-330q-37 0 -64 28t-27 66q0 31 18 57t48 36q1 30 22 52t50 22q11 0 27 -6q45 65 123 65q57 0 100 -38.5t49 -95.5zM362 236q2 2 0 5l-17 18q-2 2 -3 2t-3 -2l-122 -123l-44 45q-1 1 -3 1t-3 -1l-18 -18
q-3 -3 0 -6l56 -56q5 -5 12 -5t12 5z" />
    <glyph glyph-name="uniF155" unicode="&#xf155;" horiz-adv-x="384" 
d="M268 305l114 -109q2 -2 2 -4t-2 -4l-114 -109q-2 -2 -4 -2t-4 2l-14 13q-2 2 -2 4t2 4l96 92l-96 92q-2 2 -2 4t2 4l14 13q2 2 4 2t4 -2zM42 192l96 -92q2 -2 2 -4t-2 -4l-14 -13q-2 -2 -4 -2t-4 2l-114 109q-2 2 -2 4t2 4l114 109q2 2 4 2t4 -2l14 -13q2 -2 2 -4t-2 -4z
M269 181q0 -6 -5 -11l-62 -57q-6 -4 -10 -4t-10 4l-62 57q-5 5 -5 11t4 10t11 4q4 0 9 -3l39 -35v106q0 15 14 15t14 -15v-106l39 35q6 4 9 4q5 0 10 -5h1q4 -4 4 -10z" />
    <glyph glyph-name="uniF156" unicode="&#xf156;" horiz-adv-x="384" 
d="M382 196q2 -2 2 -4t-2 -4l-114 -109q-2 -2 -4 -2t-4 2l-14 13q-2 2 -2 4t2 4l96 92l-96 92q-2 2 -2 4t2 4l14 13q2 2 4 2t4 -2zM42 192l96 -92q2 -2 2 -4t-2 -4l-14 -13q-2 -2 -4 -2t-4 2l-114 109q-2 2 -2 4t2 4l114 109q2 2 4 2t4 -2l14 -13q2 -2 2 -4t-2 -4zM170 192
q0 9 6.5 15.5t15.5 6.5t15.5 -6.5t6.5 -15.5t-6.5 -15.5t-15.5 -6.5t-15.5 6.5t-6.5 15.5zM106 192q0 9 6.5 15.5t15.5 6.5t15.5 -6.5t6.5 -15.5t-6.5 -15.5t-15.5 -6.5t-15.5 6.5t-6.5 15.5zM234 192q0 9 6.5 15.5t15.5 6.5t15.5 -6.5t6.5 -15.5t-6.5 -15.5t-15.5 -6.5
t-15.5 6.5t-6.5 15.5z" />
    <glyph glyph-name="uniF157" unicode="&#xf157;" horiz-adv-x="384" 
d="M268 305l114 -109q2 -2 2 -4t-2 -4l-114 -109q-2 -2 -4 -2t-4 2l-14 13q-2 2 -2 4t2 4l96 92l-96 92q-2 2 -2 4t2 4l14 13q2 2 4 2t4 -2zM140 288q0 -2 -2 -4l-96 -92l96 -92q2 -2 2 -4t-2 -4l-14 -13q-2 -2 -4 -2t-4 2l-114 109q-2 2 -2 4t2 4l114 109q2 2 4 2t4 -2
l14 -13q2 -2 2 -4z" />
    <glyph glyph-name="uniF158" unicode="&#xf158;" 
d="M315 171h-86v-86h-42v86h-86v42h86v86h42v-86h86v-42zM208 358q-68 0 -117 -49t-49 -117t49 -117t117 -49t117 49t49 117t-49 117t-117 49zM208 400q86 0 147 -61t61 -147t-61 -147t-147 -61t-147 61t-61 147t61 147t147 61z" />
    <glyph glyph-name="uniF159" unicode="&#xf159;" horiz-adv-x="384" 
d="M167 330l172 -170q3 -3 1 -7t-6 -4q-22 0 -29 -7q-12 -12 -126 -123q-8 -7 -19.5 -7t-19.5 7l-131 126q-8 8 -8.5 20t7.5 20l85 84l-50 49q-14 14 -14 34t14 34t34 14t34 -14zM64 338l48 -49l29 28l-50 49q-6 6 -14 6q-9 0 -15 -8q-10 -14 2 -26zM339 108q45 -49 45 -76
q0 -20 -14 -34t-34 -14t-34 14t-14 34q0 22 45 76q3 3 6 0z" />
    <glyph glyph-name="uniF15A" unicode="&#xf15a;" horiz-adv-x="384" 
d="M384 112l-160 48v-114l48 -31v-31l-80 16l-80 -16v31l48 31v114l-160 -48v40l160 104v113q0 13 9.5 22t22.5 9t22.5 -9t9.5 -22v-113l160 -104v-40z" />
    <glyph glyph-name="uniF15B" unicode="&#xf15b;" horiz-adv-x="384" 
d="M366 100q9 -9 9.5 -23.5t-9.5 -24.5q-60 -52 -149 -52h-1q-91 0 -153 55q-63 55 -63 134t63 135q67 60 158 60q77 0 128 -45q35 -31 35 -74.5t-35 -74.5l-30 -27q-11 -10 -11 -22t11 -22q9 -8 23 -10q16 -2 24 -9zM56 232q0 -14 9 -23t23 -9t23 9t9 23t-9 23t-23 9
t-23 -9t-9 -23zM96 106q14 0 23 9t9 23t-9 23t-23 9t-23 -9t-9 -23t9 -23t23 -9zM160 267q14 0 23 9.5t9 22.5t-9 22.5t-23 9.5t-23 -9.5t-9 -22.5t9 -22.5t23 -9.5zM232 48q20 0 34 14t14 34t-14 34t-34 14t-34 -14t-14 -34t14 -34t34 -14zM256 256q14 0 23 9t9 23t-9 23
t-23 9t-23 -9t-9 -23t9 -23t23 -9z" />
    <glyph glyph-name="uniF15C" unicode="&#xf15c;" horiz-adv-x="320" 
d="M292 352q11 0 19.5 -8.5t8.5 -19.5v-264q0 -11 -8.5 -19.5t-19.5 -8.5h-264q-11 0 -19.5 8.5t-8.5 19.5v264q0 11 8.5 19.5t19.5 8.5h264zM292 68v248q0 8 -8 8h-248q-8 0 -8 -8v-248q0 -8 8 -8h248q8 0 8 8z" />
    <glyph glyph-name="uniF15D" unicode="&#xf15d;" 
d="M232 168q2 -2 0 -4l-98 -49q-2 -1 -3 0t0 3l49 98q2 2 4 0zM208 400q86 0 147 -61t61 -147t-61 -147t-147 -61t-147 61t-61 147t61 147t147 61zM249 151l81 160q1 1 -0.5 2.5t-2.5 0.5l-159 -81h-1l-81 -160q-1 -1 0.5 -2.5t2.5 -0.5z" />
    <glyph glyph-name="uniF15E" unicode="&#xf15e;" horiz-adv-x="448" 
d="M360 352l88 -160l-88 -160h-78l88 160l-51 93l-153 -253h-78l-88 160l88 160h78l-88 -160l51 -93l153 253h78z" />
    <glyph glyph-name="uniF15F" unicode="&#xf15f;" horiz-adv-x="480" 
d="M364 384zM259 390q18 -12 10 -12q-35 6 -60 -15q-30 -26 -31 -53q-1 -16 6 -28t29 -34l5 3q1 1 4 1q5 0 7 -2l14 -14l-50 -47l-13 13q-4 4 -1 10l4 7q-36 36 -51 40q-8 2 -12 2q-14 0 -21 -7q-14 -14 -5 -23l12 -12q4 -4 0 -8l-33 -35q-1 -1 -4 -1t-4 1l-63 64q-4 4 0 7
l34 34q2 2 4 2q16 -8 24 0q4 4 3.5 14t2.5 15q6 9 23 26q33 33 81 53q21 9 47 9q23 0 38 -10zM446 48q4 -4 0 -8l-55 -54q-2 -2 -4 -2t-4 2q-56 66 -114 127l47 51q27 -26 59.5 -55t51.5 -45zM463 323q19 -19 17 -41q-3 -33 -30 -60q-30 -30 -72 -30q-16 0 -32 8q-4 2 -9 2
q-6 0 -11 -5q-1 -1 -3.5 -4t-7.5 -8l-10 -10q-3 -4 -11 -12q-17 -17 -26 -27q-2 -2 -5.5 -6t-5.5 -6l-119 -127q-12 -13 -29 -13q-19 0 -32 13t-13 31t13 30q70 65 127 119q2 2 6 5.5t6 5.5q10 9 27 26l3.5 3.5t4 4.5t3.5 3q22 21 23 21q8 9 3 20q-24 56 22 104q26 27 60 30
h2q22 0 39 -17l-53 -53l10 -51l51 -9zM121 22q9 9 0 20q-9 9 -19 0q-9 -9 0 -20q9 -9 19 0z" />
    <glyph glyph-name="uniF160" unicode="&#xf160;" horiz-adv-x="384" 
d="M105 184q-22 0 -37.5 15t-15.5 36t15.5 36t37.5 15t37 -15t15 -36t-15 -36t-37 -15zM314 286q29 0 49.5 -20t20.5 -48v-154h-35v51h-314v-51h-35v256h35v-154h139v120h140z" />
    <glyph glyph-name="uniF161" unicode="&#xf161;" 
d="M208 400q86 0 147 -61t61 -147t-61 -147t-147 -61t-147 61t-61 147t61 147t147 61zM351 136q14 -5 23 -15q14 31 14 71q0 76 -54 128t-128 52q-71 0 -125 -52q-53 -53 -53 -128q0 -48 25 -92q8 4 42 11q23 3 25 13q2 8 2 23q0 2 -3 5q-4 4 -8 14q-2 8 -4 24q-4 -1 -6.5 3
t-4 10.5t-1.5 7.5q-4 18 4 22q-3 5 -5 18q-3 22 3 39q7 19 24.5 29t38.5 9q48 -2 60 -41q5 -15 1 -40q-1 -7 -5 -14q10 -4 3 -24q0 -1 -1 -5t-2 -7t-3 -5.5t-5 -1.5q-2 -22 -7 -31q0 -1 -4 -5t-4 -5v-11q0 -10 2 -15t14 -8q7 -2 21 -4.5t21 -5.5q45 -16 45 -65q0 -4 5 -2
q1 0 2.5 1t2.5 2q6 4 6 12q-3 27 -20 44q-9 8 -20.5 14.5t-18.5 8.5l-7 2q-1 0 -3 0.5t-5 1.5t-4 1q-3 1 -3 4t3 4q2 1 5 2t5 1.5t3.5 1.5t2.5 1q15 4 16 9v14l-29 6q-4 2 0 11q3 7 5 51t27 54q9 4 25 4q20 0 31 -7q20 -12 20 -44q0 -4 -0.5 -15t-0.5 -17t2 -15t6 -15
q3 -5 0 -6q-6 -5 -31 -6q-2 -13 1 -17q3 -3 8 -5t11.5 -3t9.5 -2z" />
    <glyph glyph-name="uniF162" unicode="&#xf162;" horiz-adv-x="384" 
d="M120 243l-116 117q-10 10 0 20q4 4 10 4t10 -4l117 -116v77q0 14 14 14t14 -14v-112q0 -14 -14 -14h-112q-14 0 -14 14t14 14h77zM229 215q-14 0 -14 14v112q0 14 14 14t14 -14v-77l117 116q4 4 10 4t10 -4q10 -10 0 -20l-116 -117h77q14 0 14 -14t-14 -14h-112zM14 0
q-6 0 -10 4q-10 10 0 20l116 117h-77q-14 0 -14 14t14 14h112q14 0 14 -14v-112q0 -14 -14 -14t-14 14v77l-117 -116q-4 -4 -10 -4zM229 29q-14 0 -14 14v112q0 14 14 14h112q14 0 14 -14t-14 -14h-77l116 -117q10 -10 0 -20q-4 -4 -10 -4t-10 4l-117 116v-77q0 -14 -14 -14
z" />
    <glyph glyph-name="uniF163" unicode="&#xf163;" 
d="M208 400q86 0 147 -61t61 -147t-61 -147t-147 -61t-147 61t-61 147t61 147t147 61zM335 65q53 53 53 127t-53 127t-127 53v-360q74 0 127 53z" />
    <glyph glyph-name="uniF164" unicode="&#xf164;" horiz-adv-x="384" 
d="M0 0l384 384v-384h-384z" />
    <glyph glyph-name="uniF165" unicode="&#xf165;" horiz-adv-x="448" 
d="M372 362q6 6 12 0l26 -26q6 -6 0 -12l-202 -202q-2 -2 -6 -2h-26q-8 0 -8 8v26q0 4 2 6zM444 381q4 -4 4 -12q0 -7 -4 -11l-12 -12q-2 -2 -5 0l-22 22l-10 10q-3 3 0 6l11 12q4 4 12 4q7 0 11 -4v-1zM218 106l1 1l148 147q4 2 6 -2v-209q0 -24 -17 -41.5t-41 -17.5h-256
q-24 0 -41.5 17.5t-17.5 41.5v224q0 24 17.5 41t41.5 17h241q5 -1 2 -7l-147 -147l-1 -1q-5 -5 -5 -11v-1v-38v-3q0 -16 16 -16h3h38h1q6 0 11 5z" />
    <glyph glyph-name="uniF166" unicode="&#xf166;" 
d="M208 358q-68 0 -117 -49t-49 -117t49 -117t117 -49t117 49t49 117t-49 117t-117 49zM208 400q86 0 147 -61t61 -147t-61 -147t-147 -61t-147 61t-61 147t61 147t147 61zM312 117l-29 -29l-75 75l-75 -75l-29 29l75 75l-75 75l29 29l75 -75l75 75l29 -29l-75 -75z" />
    <glyph glyph-name="uniF167" unicode="&#xf167;" 
d="M4 371l24 25l384 -384l-24 -24l-92 92q-13 -12 -58 -53l-30 -27l-30 27q-52 48 -75 70t-52.5 56t-40 60.5t-10.5 55.5q0 45 29 77zM416 269q0 -64 -72 -141l-254 254q8 2 24 2q57 0 94 -44q37 44 94 44q48 0 81 -33t33 -82z" />
    <glyph glyph-name="uniF168" unicode="&#xf168;" 
d="M393 318q5 -2 5 -7t-5 -7l-179 -94q-6 -3 -12 0l-179 94q-5 2 -5 7t5 7l179 81q6 3 12 0zM232 -15q-4 -2 -7.5 0t-3.5 7v187q0 6 4 7l180 93q4 2 7.5 0t3.5 -7v-185q0 -5 -4 -7zM0 272q0 5 3.5 7t7.5 0l180 -93q4 -1 4 -7v-187q0 -5 -3.5 -7t-7.5 0l-180 95q-4 2 -4 7
v185z" />
    <glyph glyph-name="uniF169" unicode="&#xf169;" horiz-adv-x="408" 
d="M408 12l-24 -24l-140 140l-72 -144v192h-64v88l-108 107l24 25zM300 240l-24 -48l-168 168v40h192l-64 -160h64z" />
    <glyph glyph-name="uniF16A" unicode="&#xf16a;" horiz-adv-x="360" 
d="M232 171q-11 -15 -20.5 -25.5t-13.5 -13.5l-4 -3l-14 -9q-17 -10 -29 -28q-15 -24 -26 -58q-6 -20 -22 -35t-39 -15q-27 0 -46 22q-18 20 -18 49t18 49q19 22 46 22q18 0 34 -11l10 20q5 11 11 22q3 6 9 15q2 2 5 7t4 7q15 22 15 23l15 20l3 4l10 13l114 154q13 0 20 -7
q19 -17 19 -41q0 -18 -11 -46q-7 -17 -37.5 -62t-52.5 -73zM64 27q10 0 17 8t7 20q0 11 -7 19.5t-17 8.5t-17 -8.5t-7 -19.5t7 -19.5t17 -8.5zM180 160q16 0 16 16t-16 16t-16 -16t16 -16zM116 188q-67 91 -78 118q-11 28 -11 46q0 30 19 44q5 4 19 4l105 -141l-47 -65
l-2.5 -5t-2.5 -4q0 1 -1 1zM296 126q26 0 45 -21t19 -50t-19 -50t-45 -21q-22 0 -39 15q-16 15 -22 35q-11 34 -26 58q-5 7 -15 17l36 33l11 14q4 -7 10 -21q2 -4 6 -10.5t5 -9.5q16 11 34 11zM296 27q10 0 17 8t7 20q0 11 -7 19.5t-17 8.5t-17 -8.5t-7 -19.5t7 -19.5
t17 -8.5z" />
    <glyph glyph-name="uniF16B" unicode="&#xf16b;" horiz-adv-x="352" 
d="M48 150l1 122h255v-122l-64 -64v-118h-128v118zM155 416h42v-64h-42v64zM0 338l30 30l45 -46l-30 -30zM277 322l45 46l30 -30l-45 -46z" />
    <glyph glyph-name="uniF16C" unicode="&#xf16c;" horiz-adv-x="448" 
d="M320 6q0 -6 -5 -6h-182q-5 0 -5 6q0 4 4 4l22 2q19 5 23 28l1 8h92l1 -8q4 -23 23 -28l22 -2q4 0 4 -4zM441 377q7 -7 7 -17v-272q0 -10 -7 -17t-17 -7h-400q-10 0 -17 7t-7 17v272q0 10 7 17t17 7h400q10 0 17 -7zM224 88q8 0 8 8t-8 8t-8 -8t8 -8zM428 128q4 0 4 4v224
q0 12 -12 12h-392q-12 0 -12 -12v-224q0 -4 4 -4h408z" />
    <glyph glyph-name="uniF16D" unicode="&#xf16d;" 
d="M208 358q-68 0 -117 -49t-49 -117t49 -117t117 -49t117 49t49 117t-49 117t-117 49zM208 400q86 0 147 -61t61 -147t-61 -147t-147 -61t-147 61t-61 147t61 147t147 61zM187 67v42h42v-42h-42zM229 130h-42q0 23 10 38.5t21.5 22.5t21.5 18t10 25q0 17 -12.5 29.5
t-29.5 12.5t-29.5 -12.5t-12.5 -29.5h-41q0 34 24.5 58.5t58.5 24.5t58.5 -24.5t24.5 -58.5q0 -27 -31 -54.5t-31 -49.5z" />
    <glyph glyph-name="uniF16E" unicode="&#xf16e;" 
d="M208 282q38 0 64 -26t26 -64t-26 -64t-64 -26t-64 26t-26 64t26 64t64 26zM208 152q16 0 28 12t12 28t-12 28t-28 12t-28 -12t-12 -28t12 -28t28 -12zM208 400q86 0 147 -61t61 -147t-61 -147t-147 -61t-147 61t-61 147t61 147t147 61zM208 78q47 0 80.5 33.5t33.5 80.5
t-33.5 80.5t-80.5 33.5t-80.5 -33.5t-33.5 -80.5t33.5 -80.5t80.5 -33.5z" />
    <glyph glyph-name="uniF16F" unicode="&#xf16f;" 
d="M208 358q-68 0 -117 -49t-49 -117t49 -117t117 -49t117 49t49 117t-49 117t-117 49zM208 400q86 0 147 -61t61 -147t-61 -147t-147 -61t-147 61t-61 147t61 147t147 61zM229 88h-42v125h42v-125zM229 254h-42v42h42v-42z" />
    <glyph glyph-name="uniF170" unicode="&#xf170;" horiz-adv-x="304" 
d="M208 293q-8 0 -13.5 5.5t-5.5 13.5v72q0 8 7 8q11 0 21 -8l76 -63q11 -9 11 -23q0 -5 -5 -5h-91zM163 312q0 -19 13 -32t32 -13h96v-243q0 -14 -9 -23t-23 -9h-240q-14 0 -23 9t-9 23v336q0 14 9 23t23 9h131v-80z" />
    <glyph glyph-name="uniF171" unicode="&#xf171;" horiz-adv-x="320" 
d="M222 238l-67 -69l-26 27l66 69q2 2 4 2q1 0 3 -2l20 -21q3 -3 0 -6zM28 195l76 -79l-13 -14q-6 -6 -13 -6q-6 0 -13 7l-64 65q-3 3 0 6l20 21q1 1 4 1q2 0 3 -1zM319 266q3 -4 0 -7l-151 -156q-6 -6 -13 -6q-8 0 -14 6l-63 65q-4 4 0 7l20 21q1 1 3 1q3 0 4 -1l50 -52
l138 143q1 1 3 1t3 -1z" />
    <glyph glyph-name="uniF172" unicode="&#xf172;" horiz-adv-x="464" 
d="M336 320q0 26 19 45t45 19t45 -19t19 -45t-19 -45t-45 -19t-45 19t-19 45zM351 245q23 -15 49 -15t48 14v-185q0 -18 -12.5 -30.5t-30.5 -12.5h-362q-18 0 -30.5 12.5t-12.5 30.5v266q0 18 12.5 30.5t30.5 12.5h281q-14 -22 -14 -48q0 -29 15 -50l-101 -67l-176 117v-43
l176 -117z" />
    <glyph glyph-name="uniF173" unicode="&#xf173;" horiz-adv-x="448" 
d="M402 -14q2 -5 -1 -12q-3 -6 -11 -6h-1q-10 0 -13 8l-26 70q-2 4 2 12q3 6 11 6q9 0 12 -8zM86 64q8 0 11 -6q4 -6 1 -12l-26 -70q-3 -8 -12 -8h-1q-8 0 -11 6q-4 7 -1 12l26 70q3 8 13 8zM225 64q13 0 13 -13v-37q0 -5 -4 -9.5t-9 -4.5h-1q-5 0 -9.5 4.5t-4.5 9.5v37
q0 5 4.5 9t9.5 4h1zM392 320q8 0 8 -8v-176q0 -8 -8 -8h-336q-8 0 -8 8v176q0 8 8 8h336zM416 368q14 0 23 -9t9 -23v-224q0 -14 -9 -23t-23 -9h-384q-14 0 -23 9t-9 23v224q0 14 9 23t23 9h384zM420 124v205q0 5 -3 8t-8 3h-365q-16 0 -16 -16v-200q0 -16 16 -16h360
q16 0 16 16zM224 416q10 0 17 -8t7 -18h-48q0 10 7 18t17 8z" />
    <glyph glyph-name="uniF174" unicode="&#xf174;" 
d="M208 400q86 0 147 -61t61 -147t-61 -147t-147 -61t-147 61t-61 147t61 147t147 61zM166 98l125 94l-125 94v-188z" />
    <glyph glyph-name="uniF175" unicode="&#xf175;" horiz-adv-x="320" 
d="M160 416q50 0 105 -83.5t55 -173.5q0 -91 -43.5 -141t-116.5 -50t-116.5 50t-43.5 141q0 90 55 173.5t105 83.5z" />
    <glyph glyph-name="uniF176" unicode="&#xf176;" 
d="M208 358q-68 0 -117 -49t-49 -117t49 -117t117 -49t117 49t49 117t-49 117t-117 49zM208 400q86 0 147 -61t61 -147t-61 -147t-147 -61t-147 61t-61 147t61 147t147 61zM315 171h-214v42h214v-42z" />
    <glyph glyph-name="uniF177" unicode="&#xf177;" 
d="M96 312q0 16 12 28t28 12h240q16 0 28 -12t12 -28v-240q0 -16 -12 -28t-28 -12h-240q-16 0 -28 12t-12 28v107h180l-47 -48q-9 -9 0 -18t18 0l69 70q2 2 3 4t1 5q0 5 -4 9l-69 70q-9 9 -18 0t0 -18l47 -48h-180v107zM13 205h83v-26h-83q-13 0 -13 13t13 13z" />
    <glyph glyph-name="uniF178" unicode="&#xf178;" horiz-adv-x="384" 
d="M48 356l117 -117q10 -10 0 -20q-4 -4 -10 -4t-10 4l-117 117v-78q0 -14 -14 -14t-14 14v112q0 14 14 14h112q14 0 14 -14t-14 -14h-78zM370 384q14 0 14 -14v-112q0 -14 -14 -14t-14 14v78l-117 -117q-4 -4 -10 -4t-10 4q-10 10 0 20l117 117h-78q-14 0 -14 14t14 14h112
zM155 169q6 0 10 -4q10 -10 0 -20l-117 -117h78q14 0 14 -14t-14 -14h-112q-14 0 -14 14v112q0 14 14 14t14 -14v-78l117 117q4 4 10 4zM370 140q14 0 14 -14v-112q0 -14 -14 -14h-112q-14 0 -14 14t14 14h78l-117 117q-10 10 0 20q4 4 10 4t10 -4l117 -117v78q0 14 14 14z
" />
    <glyph glyph-name="uniF179" unicode="&#xf179;" horiz-adv-x="288" 
d="M144 26q15 0 43 11q11 4 11 -7l-4 -51q0 -2 -2 -3.5t-4 0.5l-15 11q-4 2 -5 -1l-21 -32q-3 -3 -6 0l-21 32q-2 3 -6 1l-14 -11q-2 -2 -4 -0.5t-2 3.5l-4 51q0 11 11 7q27 -11 43 -11zM286 155q2 -2 2 -7l-18 -112q-2 -11 -12 -5l-67 45q-20 -20 -46 -20q-12 0 -24 5
t-18 10l-6 5l-67 -45q-9 -6 -11 5l-19 112q0 5 2 7l48 49q0 44 9.5 84t23.5 65t28 44t23 27l10 8q4 -3 10 -8.5t22.5 -26t29 -45t22.5 -64.5t10 -84zM144 256q13 0 22 9.5t9 22.5t-9 22.5t-22 9.5t-21.5 -9t-8.5 -23t8.5 -23t21.5 -9z" />
    <glyph glyph-name="uniF17A" unicode="&#xf17a;" horiz-adv-x="448" 
d="M56 380l356 -356q10 -10 0 -20q-1 -1 -7 -4q-7 -2 -13 4l-356 356q-10 10 0 20t20 0zM228 102q19 2 35 9l43 -44q-40 -19 -82 -19q-46 0 -88 20.5t-66.5 43.5t-65.5 69q-11 11 0 22q54 58 85 81l54 -54q-7 -15 -9 -34q-2 -40 26 -68t68 -26zM444 182q-54 -59 -85 -82
l-54 54q7 15 9 34q2 40 -26 68t-68 26q-17 0 -35 -9l-43 44q41 19 82 19q112 0 220 -133q9 -10 0 -21zM160 187q-1 9 3 24l79 -80q-14 -4 -23 -3q-23 2 -40 19t-19 40zM288 192q0 -10 -3 -19l-18 19h3q6 0 18 4v-4zM224 239v-5l-19 19q9 3 19 3h3q-3 -8 -3 -17z" />
    <glyph glyph-name="uniF17B" unicode="&#xf17b;" 
d="M14 -16q-6 0 -10 4q-10 10 0 19l45 45l-37 37q-10 9 0 19q3 4 9 4t10 -4l37 -37l50 50q-40 48 -40 110q0 36 13 66q11 28 36 53q26 26 54 37q30 13 66 13t66 -13q27 -11 53 -37t37 -53q13 -30 13 -66t-13 -66q-11 -28 -37 -54q-25 -25 -53 -36q-30 -13 -66 -13
q-62 0 -110 40l-50 -50l37 -37q10 -9 0 -19q-3 -4 -9 -4t-10 4l-37 37l-45 -45q-3 -4 -9 -4zM146 331q-41 -41 -41 -100q0 -58 42 -100t100 -42t100 42t42 100t-42 100t-100 42q-59 0 -101 -42z" />
    <glyph glyph-name="uniF17C" unicode="&#xf17c;" 
d="M403 266q13 -39 13 -73v-11q0 -5 -4.5 -9t-9.5 -4q-7 0 -10 4q-4 6 -4 10q0 1 0.5 4.5t0.5 5.5q0 27 -12 63q-11 32 -27 48q-10 10 0 20q4 4 10 4t10 -4q18 -18 33 -58zM95 337q-8 0 -11 6q-3 5 -2 10q2 7 5 9q53 38 121 38q71 0 131 -49q11 -9 2 -19q-5 -5 -11 -5
q-5 0 -8 3q-52 43 -114 43q-58 0 -105 -33q-3 -3 -8 -3zM27 193q0 -34 15 -82q2 -7 -1 -11t-9 -6h-2l-2 -1q-10 0 -13 10q-15 47 -15 90q0 78 51 137q4 4 11 4q5 0 8 -3q5 -3 5 -9t-3 -10q-45 -51 -45 -119zM308 318q41 -36 57 -94q19 -68 10 -155q-2 -12 -14 -12h-1
q-14 2 -12 15q8 86 -9 145q-15 52 -49 81t-79 29q-63 0 -101 -41t-33 -95q2 -27 9 -63q9 -42 6 -92q0 -5 -4.5 -9t-9.5 -4l-2 1h-2q-10 3 -10 14q3 44 -5 85q-7 39 -9 66q-5 67 40 115q47 50 121 50q57 0 97 -36zM326 180q7 -43 7 -77q0 -12 -0.5 -24t-1.5 -21t-1.5 -16.5
t-1.5 -11.5v-4q-2 -12 -14 -12h-2q-6 2 -9 6q-3 5 -2 10q4 33 4 73q0 31 -7 73q-8 48 -32 75q-24 26 -58 26q-22 0 -42 -9q-2 -1 -6 -1q-6 0 -11 5t-3 12q1 6 8 9q24 12 54 12q45 0 77 -34q32 -33 41 -91zM137 244q-16 -23 -10 -59q19 -112 10 -174q-2 -12 -14 -12h-1
q-6 0 -9 5t-3 11q9 59 -10 165q-8 47 15 80q4 6 11 6q6 0 9 -3q9 -9 2 -19zM270 60q13 0 13 -13q0 -26 -3 -41q-2 -11 -13 -11h-5q-11 4 -9 16l3 35q0 14 13 14h1zM247 242q16 -14 24 -44q10 -36 12 -114q0 -4 -4 -10q-4 -4 -9 -4q-6 0 -10 4.5t-4 9.5q-2 69 -12 108t-38 39
q-17 0 -26 -11q-10 -14 -6 -37q20 -98 9 -184q-2 -12 -14 -12h-1q-14 2 -12 15q10 81 -8 176q-7 38 10 60q17 20 48 20q23 0 41 -16zM217 202q13 -31 16 -90q4 -58 -2 -116q-2 -12 -13 -12h-2q-6 0 -9 5q-3 4 -3 10q5 45 2 110q-3 58 -14 83q-5 13 7 18q2 1 5 1q9 0 13 -9z
" />
    <glyph glyph-name="uniF17D" unicode="&#xf17d;" horiz-adv-x="384" 
d="M341 416q18 0 30.5 -12.5t12.5 -30.5v-362q0 -18 -12.5 -30.5t-30.5 -12.5h-298q-18 0 -30.5 12.5t-12.5 30.5v362q0 18 12.5 30.5t30.5 12.5h298zM337 11q4 0 4 4v354q0 4 -4 4h-290q-4 0 -4 -4v-354q0 -4 4 -4h290zM81 254q0 2 2 2h218q2 0 2 -2v-204q0 -2 -2 -2h-218
q-2 0 -2 2v204zM81 333q0 2 2 2h171q2 0 2 -2v-34q0 -2 -2 -2h-171q-2 0 -2 2v34z" />
    <glyph glyph-name="uniF17E" unicode="&#xf17e;" horiz-adv-x="256" 
d="M248 224q5 0 7.5 -5t-0.5 -9l-184 -240q-2 -3 -5 -1.5t-2 4.5l52 187h-108q-5 0 -7 4t1 9l183 241q2 3 5 1.5t2 -4.5l-52 -187h108z" />
    <glyph glyph-name="uniF17F" unicode="&#xf17f;" horiz-adv-x="448" 
d="M407 372q17 0 29 -12t12 -28v-240q0 -16 -12 -28t-29 -12h-102v-40h-163v40h-101q-17 0 -29 12t-12 28v240q0 16 12 28t29 12h366zM407 92v240h-366v-240h366z" />
    <glyph glyph-name="uniF180" unicode="&#xf180;" horiz-adv-x="448" 
d="M416 329v-41h-384v73q0 10 7 16.5t18 6.5h96q10 0 17 -7l23 -23q2 -2 6 -2h194q10 0 16.5 -6.5t6.5 -16.5zM32 260h384h8q26 0 24 -30l-24 -205q-3 -25 -23 -25h-352q-21 0 -25 25q-22 192 -24 211q-3 24 24 24h8z" />
    <glyph glyph-name="uniF181" unicode="&#xf181;" horiz-adv-x="448" 
d="M103 243q19 0 19 -19t-19 -19t-19 19t19 19zM434 199q16 -66 14 -110.5t-21 -53.5q-6 -3 -13 -3q-26 0 -67 52q-19 24 -35.5 28.5t-75.5 4.5h-24q-59 0 -75 -4.5t-35 -28.5q-43 -52 -68 -52q-7 0 -13 3q-19 9 -21 53.5t14 110.5q17 70 36.5 105t51.5 44q13 4 26 4
q11 0 40 -7.5t56 -7.5t56 7.5t40 7.5q13 0 26 -4q32 -9 51.5 -44t36.5 -105zM103 184q16 0 27.5 11.5t11.5 28.5t-11.5 28.5t-27.5 11.5t-27.5 -11.5t-11.5 -28.5t11.5 -28.5t27.5 -11.5zM276 204q8 0 14 6t6 14t-6 14t-14 6t-14 -6t-6 -14t6 -14t14 -6zM320 160q8 0 14 6
t6 14t-6 14t-14 6t-14 -6t-6 -14t6 -14t14 -6zM320 248q8 0 14 6t6 14t-6 14t-14 6t-14 -6t-6 -14t6 -14t14 -6zM364 204q8 0 14 6t6 14t-6 14t-14 6t-14 -6t-6 -14t6 -14t14 -6z" />
    <glyph glyph-name="uniF182" unicode="&#xf182;" 
d="M0 361q0 10 6 16.5t15 6.5h374q9 0 15 -6.5t6 -16.5t-6 -16l-152 -180q-5 -5 -5 -15v-134q0 -8 -6.5 -13t-13.5 -2l-55 20q-15 5 -15 22v107q0 10 -5 15l-152 180q-6 6 -6 16z" />
    <glyph glyph-name="uniF183" unicode="&#xf183;" horiz-adv-x="332" 
d="M262 352q29 0 49.5 -20.5t20.5 -49.5q0 -25 -16 -44.5t-40 -24.5q-1 -36 -38 -64q-26 -19 -78 -29q-35 -7 -51 -24q31 -21 31 -58q0 -29 -20.5 -49.5t-49.5 -20.5t-49.5 20.5t-20.5 49.5q0 26 17 46q16 17 38 22v172q-22 4 -38 22q-17 20 -17 46q0 29 20.5 49.5
t49.5 20.5t49.5 -20.5t20.5 -49.5q0 -28 -18 -47q-16 -17 -39 -22v-169q24 32 73 40q45 7 65 23q26 20 27 43q-24 5 -40 24t-16 44q0 29 20.5 49.5t49.5 20.5zM28 346q0 -17 12.5 -29.5t29.5 -12.5t29.5 12.5t12.5 29.5t-12.5 29.5t-29.5 12.5t-29.5 -12.5t-12.5 -29.5z
M112 38q0 17 -12.5 29.5t-29.5 12.5t-29.5 -12.5t-12.5 -29.5t12.5 -29.5t29.5 -12.5t29.5 12.5t12.5 29.5zM262 240q17 0 29.5 12.5t12.5 29.5t-12.5 29.5t-29.5 12.5t-29.5 -12.5t-12.5 -29.5t12.5 -29.5t29.5 -12.5z" />
    <glyph glyph-name="uniF184" unicode="&#xf184;" horiz-adv-x="448" 
d="M434 206q14 0 14 -14t-14 -14h-77q-5 -51 -41 -84q-38 -36 -92 -36t-92 36q-36 33 -41 84h-77q-14 0 -14 14t14 14h77q5 51 41 84q38 36 92 36t92 -36q36 -33 41 -84h77zM299 117q31 31 31 75t-31 75t-75 31t-75 -31t-31 -75t31 -75t75 -31t75 31z" />
    <glyph glyph-name="uniF185" unicode="&#xf185;" horiz-adv-x="448" 
d="M202 120l59 -59q7 -7 7 -16q0 -8 -7 -15l-57 -58q-4 -4 -10 -4q-4 0 -10 4q-9 11 0 20l40 40h-90q-51 0 -70 45q-9 23 -9 65v136q-22 4 -38 22q-17 20 -17 46q0 29 20.5 49.5t49.5 20.5t49.5 -20.5t20.5 -49.5q0 -28 -18 -47q-16 -17 -39 -22v-135q0 -40 9 -59
q12 -23 42 -23h89l-41 40q-4 4 -4 10t4 10t10 4t10 -4zM70 304q17 0 29.5 12.5t12.5 29.5t-12.5 29.5t-29.5 12.5t-29.5 -12.5t-12.5 -29.5t12.5 -29.5t29.5 -12.5zM393 106q22 -5 38 -22q17 -20 17 -46q0 -29 -20.5 -49.5t-49.5 -20.5t-49.5 20.5t-20.5 49.5q0 28 18 47
q16 17 39 22v135q0 39 -9 58q-12 24 -42 24h-89l41 -40q4 -4 4 -10t-4 -10t-10 -4t-10 4l-59 59q-7 7 -7 16q0 8 7 15l57 58q4 4 10 4q4 0 10 -4q9 -11 0 -20l-40 -40h90q51 0 70 -45q9 -23 9 -65v-136zM378 -4q17 0 29.5 12.5t12.5 29.5t-12.5 29.5t-29.5 12.5t-29.5 -12.5
t-12.5 -29.5t12.5 -29.5t29.5 -12.5z" />
    <glyph glyph-name="uniF186" unicode="&#xf186;" horiz-adv-x="384" 
d="M314 230q29 0 49.5 -20.5t20.5 -49.5t-20.5 -49.5t-49.5 -20.5q-25 0 -44 16t-24 40q-18 0 -50 13q-68 26 -113 89v-141q23 -5 39 -22q18 -20 18 -47q0 -29 -20.5 -49.5t-49.5 -20.5t-49.5 20.5t-20.5 49.5q0 26 17 46q16 17 38 22v172q-22 4 -38 22q-17 20 -17 46
q0 29 20.5 49.5t49.5 20.5t49.5 -20.5t20.5 -49.5q0 -49 -45 -66q43 -68 111 -95q29 -11 39 -11q5 24 24.5 40t44.5 16zM112 38q0 17 -12.5 29.5t-29.5 12.5t-29.5 -12.5t-12.5 -29.5t12.5 -29.5t29.5 -12.5t29.5 12.5t12.5 29.5zM70 304q17 0 29.5 12.5t12.5 29.5
t-12.5 29.5t-29.5 12.5t-29.5 -12.5t-12.5 -29.5t12.5 -29.5t29.5 -12.5zM314 118q17 0 29.5 12.5t12.5 29.5t-12.5 29.5t-29.5 12.5t-29.5 -12.5t-12.5 -29.5t12.5 -29.5t29.5 -12.5z" />
    <glyph glyph-name="uniF187" unicode="&#xf187;" horiz-adv-x="384" 
d="M313 416q29 0 50 -21t21 -50q0 -25 -16 -44.5t-40 -24.5v-57q0 -5 -4 -7l-117 -60v-44q23 -5 38 -23q18 -21 18 -46q0 -29 -21 -50t-50 -21t-50 21t-21 50q0 25 16 44.5t40 24.5v44l-117 60q-4 2 -4 7v57q-23 5 -38 23q-18 21 -18 46q0 29 21 50t50 21t49.5 -21t20.5 -50
q0 -25 -15.5 -44.5t-39.5 -24.5v-43l106 -55l106 55v43q-23 5 -38 23q-17 20 -17 46q0 29 20.5 50t49.5 21zM30 345q0 -17 12 -29t29 -12q16 0 28 12t12 29t-12 29t-28 12q-17 0 -29 -12t-12 -29zM233 39q0 17 -12.5 29t-28.5 12t-28.5 -12t-12.5 -29t12.5 -29t28.5 -12
t28.5 12t12.5 29zM313 304q17 0 29 12t12 29t-12 29t-29 12q-16 0 -28 -12t-12 -29t12 -29t28 -12z" />
    <glyph glyph-name="uniF188" unicode="&#xf188;" horiz-adv-x="384" 
d="M329 106q22 -5 38 -22q17 -20 17 -46q0 -29 -20.5 -49.5t-49.5 -20.5t-49.5 20.5t-20.5 49.5q0 28 18 47q16 17 39 22v135q0 39 -9 58q-12 24 -42 24h-77l41 -40q4 -4 4 -10t-4 -10t-10 -4t-10 4l-56 56q-5 -18 -16 -29q-16 -17 -39 -22v-162q23 -5 39 -22q18 -20 18 -47
q0 -29 -20.5 -49.5t-49.5 -20.5t-49.5 20.5t-20.5 49.5q0 26 17 46q16 17 38 22v164q-22 4 -38 22q-17 20 -17 46q0 29 20.5 49.5t49.5 20.5q24 0 42.5 -14.5t24.5 -36.5l55 55q4 4 10 4q4 0 10 -4q9 -11 0 -20l-40 -40h78q51 0 70 -45q9 -23 9 -65v-136zM112 38
q0 17 -12.5 29.5t-29.5 12.5t-29.5 -12.5t-12.5 -29.5t12.5 -29.5t29.5 -12.5t29.5 12.5t12.5 29.5zM70 296q17 0 29.5 12.5t12.5 29.5t-12.5 29.5t-29.5 12.5t-29.5 -12.5t-12.5 -29.5t12.5 -29.5t29.5 -12.5zM314 -4q17 0 29.5 12.5t12.5 29.5t-12.5 29.5t-29.5 12.5
t-29.5 -12.5t-12.5 -29.5t12.5 -29.5t29.5 -12.5z" />
    <glyph glyph-name="uniF189" unicode="&#xf189;" horiz-adv-x="384" 
d="M28 416h228v-384h-208q-7 0 -12 -5.5t-4 -12.5q2 -14 16 -14h320q16 0 16 -16t-16 -16h-340q-12 0 -20 8t-8 20v392q0 12 8 20t20 8zM368 32h-64v384h52q12 0 20 -8t8 -20v-340q0 -16 -16 -16z" />
    <glyph glyph-name="uniF18A" unicode="&#xf18a;" 
d="M208 400q86 0 147 -61t61 -147t-61 -147t-147 -61h-1q-85 0 -146 61t-61 147t61 147t146 61h1zM388 206q-5 54 -38 97q-25 -13 -49 -21q8 -34 10 -76h77zM194 206v62q-30 2 -53 7q-7 -31 -9 -69h62zM194 178h-62q2 -38 9 -69q23 5 53 7v62zM222 178v-62q29 -2 52 -7
q7 31 9 69h-61zM222 206h61q-2 38 -9 69q-23 -5 -52 -7v-62zM331 324q-31 28 -64 39q15 -23 26 -55q16 5 38 16zM267 301q-17 53 -45 68v-74q22 1 45 6zM194 369q-27 -14 -46 -68q22 -4 46 -6v74zM148 363q-34 -11 -63 -39q24 -12 37 -16q12 35 26 55zM66 303
q-33 -42 -38 -97h77q2 42 10 76q-17 5 -49 21zM28 178q5 -56 37 -97q23 11 50 21q-8 34 -10 76h-77zM84 60q29 -27 64 -39q-15 23 -26 55q-16 -5 -38 -16zM148 83q19 -54 46 -68v74q-24 -2 -46 -6zM222 15q28 15 45 68q-23 5 -45 6v-74zM267 21q34 11 65 39q-22 11 -38 16
q-10 -29 -27 -55zM350 81q33 43 38 97h-77q-2 -42 -10 -76q24 -8 49 -21z" />
    <glyph glyph-name="uniF18B" unicode="&#xf18b;" 
d="M356 288q25 0 42.5 -17.5t17.5 -42.5v-168q0 -25 -17.5 -42.5t-42.5 -17.5h-296q-25 0 -42.5 17.5t-17.5 42.5v168q0 25 17.5 42.5t42.5 17.5h296zM295 383q25 5 43 -13q14 -14 14 -38v-20h-287q-15 0 -27.5 -5t-17.5 -9l-4 -5q0 15 14.5 28t29.5 16z" />
    <glyph glyph-name="uniF18C" unicode="&#xf18c;" horiz-adv-x="384" 
d="M142 140q-2 0 -2 2v100q0 2 2 2h100q2 0 2 -2v-100q0 -2 -2 -2h-100zM0 352q0 14 9 23t23 9h320q14 0 23 -9t9 -23v-320q0 -14 -9 -23t-23 -9h-320q-14 0 -23 9t-9 23v320zM330 244q14 0 14 14t-14 14h-56q-2 0 -2 2v56q0 14 -14 14t-14 -14v-56q0 -2 -2 -2h-100
q-2 0 -2 2v56q0 14 -14 14t-14 -14v-56q0 -2 -2 -2h-56q-14 0 -14 -14t14 -14h56q2 0 2 -2v-100q0 -2 -2 -2h-56q-14 0 -14 -14t14 -14h56q2 0 2 -2v-56q0 -14 14 -14t14 14v56q0 2 2 2h100q2 0 2 -2v-56q0 -14 14 -14t14 14v56q0 2 2 2h56q14 0 14 14t-14 14h-56q-2 0 -2 2
v100q0 2 2 2h56z" />
    <glyph glyph-name="uniF18D" unicode="&#xf18d;" horiz-adv-x="341" 
d="M32 405h203v-426h-203q-14 0 -23 9.5t-9 22.5v362q0 13 9 22.5t23 9.5zM299 405q17 0 29.5 -12.5t12.5 -29.5v-342q0 -17 -12.5 -29.5t-29.5 -12.5h-16v426h16z" />
    <glyph glyph-name="uniF18E" unicode="&#xf18e;" 
d="M229 201q6 -14 -3 -25q-1 -1 -14 -13.5t-25 -24.5q-56 -56 -119 -132q-12 -13 -24 -1l-39 39q-12 12 1 24q95 81 132 118l39 39q10 10 23 4q6 -3 7 -4l18 -18q2 -2 4 -6zM414 230q4 -4 0 -8l-56 -55q-2 -2 -4 -2t-4 2l-34 34q-4 4 0 8l2 2q12 10 0 24q0 1 -1 1t-2 1
q-10 5 -23 5q-5 0 -13 -2q-10 -2 -31 -23q-6 -6 -12 0l-19 20q-5 5 0 11q20 23 19 45q-1 29 -31 53q-13 10 -45 10q-19 0 -23 -1h-3q-10 0 1 12l2 2q15 15 55 15q25 0 47 -9q49 -20 82 -53q18 -18 24 -27q3 -4 2 -15t3 -14q5 -5 12 -5t10 3q2 2 4 2t4 -2z" />
    <glyph glyph-name="uniF18F" unicode="&#xf18f;" 
d="M155 107q0 -18 12 -30.5t30 -12.5h197v-21q0 -18 -12 -30.5t-30 -12.5h-308q-18 0 -31 12t-13 30v300q0 18 13 30t31 12h308q17 0 29.5 -12.5t12.5 -30.5v-21h-197q-18 0 -30 -12.5t-12 -30.5v-170zM197 262q0 16 16 16h187q16 0 16 -16v-140q0 -16 -16 -16h-187
q-16 0 -16 16v140zM274 160q12 1 20.5 9.5t9.5 20.5q1 14 -9.5 24.5t-24.5 9.5q-12 -1 -20.5 -9.5t-9.5 -20.5q-1 -14 9.5 -24.5t24.5 -9.5z" />
    <glyph glyph-name="uniF190" unicode="&#xf190;" horiz-adv-x="320" 
d="M299 331q9 0 15 -6.5t6 -14.5v-233q0 -41 -21.5 -67t-56.5 -26h-58q-11 0 -21 3t-15 5l-4 3q-15 9 -33.5 26.5t-31.5 33t-29 35t-19 23.5q-31 34 -31 45q0 4 4 8q23 22 66 -16l28 -24v219q0 8 6 14t15 6t15 -6t6 -14v-127q0 -9 9 -9t9 9v161q0 8 6 14.5t15 6.5t15 -6.5
t6 -14.5v-144q0 -8 9 -8t9 8v127q0 8 6 14.5t15 6.5t15 -6.5t6 -14.5v-161q0 -9 9 -9t9 9v109q0 8 6 14.5t15 6.5z" />
    <glyph glyph-name="uniF191" unicode="&#xf191;" 
d="M384 312q14 0 23 -9t9 -23v-20q0 -4 -4 -4h-408q-4 0 -4 4v20q0 14 9 23t23 9h84q-20 18 -20 44q0 25 18.5 42.5t44.5 17.5q33 0 49 -27q16 27 49 27q26 0 44.5 -17.5t18.5 -42.5q0 -26 -20 -44h84zM257 388q-34 0 -34 -64h34q14 0 24 9.5t10 22.5t-10 22.5t-24 9.5z
M159 388q-14 0 -24 -9.5t-10 -22.5t10 -22.5t24 -9.5h34q0 64 -34 64zM16 222q0 8 8 8h170v-262h-146q-14 0 -23 9t-9 23v222zM392 230q8 0 8 -8v-222q0 -14 -9 -23t-23 -9h-146v262h170z" />
    <glyph glyph-name="uniF192" unicode="&#xf192;" 
d="M208 400q86 0 147 -61t61 -147t-61 -147t-147 -61t-147 61t-61 147t61 147t147 61zM280 248q-10 0 -17 -7t-7 -17t7 -17t17 -7t17 7t7 17t-7 17t-17 7zM136 248q-10 0 -17 -7t-7 -17t7 -17t17 -7t17 7t7 17t-7 17t-17 7zM208 79q33 0 59 20t35 51q1 4 -1.5 7t-6.5 3h-172
q-4 0 -6.5 -3t-1.5 -7q9 -31 35 -51t59 -20z" />
    <glyph glyph-name="uniF193" unicode="&#xf193;" 
d="M405 384q13 -2 11 -16l-18 -113h-256l22 -127h88l16 96h125l-34 -212q-2 -12 -13 -12h-271q-8 0 -12 4t-6 12l-57 352v2q0 6 4.5 10t9.5 4h389h2z" />
    <glyph glyph-name="uniF194" unicode="&#xf194;" horiz-adv-x="448" 
d="M224 324q38 0 64 -28t26 -60q0 -14 -13 -14t-13 14q0 27 -19 44q-17 16 -45 16t-45 -16q-19 -17 -19 -44q0 -14 -13 -14t-13 14q0 32 26 60t64 28zM425 169q23 -23 23 -55v-12q0 -32 -23 -55t-55 -23h-6q-6 0 -10 -4t-10 -4q-14 0 -14 14v204q0 44 -31 75t-75 31t-75 -31
t-31 -75v-204q0 -14 -14 -14q-6 0 -10 4t-10 4h-6q-32 0 -55 23t-23 55v12q0 32 23 55t55 23h8q4 0 4 4v38q0 56 39 95t95 39q57 0 95 -40q39 -39 39 -94v-38q0 -4 4 -4h8q32 0 55 -23z" />
    <glyph glyph-name="uniF195" unicode="&#xf195;" horiz-adv-x="512" 
d="M228 178v57h28v-57h-28zM0 292h512v-171h-256v-29h-114v29h-142v171zM142 149v114h-114v-114h57v86h29v-86h28zM284 149v114h-113v-143h57v29h56zM484 149v114h-171v-114h57v86h28v-86h29v86h28v-86h29z" />
    <glyph glyph-name="uniF196" unicode="&#xf196;" 
d="M208 400q86 0 147 -61t61 -147t-61 -147t-147 -61t-147 61t-61 147t61 147t147 61zM263 364l-6 -89q22 -12 34 -34l89 6q-14 41 -45 72t-72 45zM81 319q-31 -31 -45 -72l89 -6q12 22 34 34l-6 89q-41 -14 -72 -45zM153 20l6 89q-22 12 -34 34l-89 -6q14 -41 45 -72
t72 -45zM208 124q28 0 48 20t20 48t-20 48t-48 20t-48 -20t-20 -48t20 -48t48 -20zM335 65q31 31 45 73l-89 6q-13 -23 -34 -35l6 -89q41 14 72 45z" />
    <glyph glyph-name="uniF197" unicode="&#xf197;" 
d="M208 372q-74 0 -127 -53t-53 -127t53 -127t127 -53t127 53t53 127t-53 127t-127 53zM208 400q86 0 147 -61t61 -147t-61 -147t-147 -61t-147 61t-61 147t61 147t147 61zM209 288q28 0 45.5 -14t17.5 -37q0 -27 -28 -44q-23 -14 -23 -30v-8h-35v8q-3 28 23 44q24 14 24 29
q0 9 -8 15.5t-19 6.5q-24 0 -26 -25h-36q1 25 18.5 40t46.5 15zM182 117q0 9 6.5 14.5t15.5 5.5q21 0 21 -20q0 -9 -6 -15t-15 -6t-15.5 6t-6.5 15z" />
    <glyph glyph-name="uniF198" unicode="&#xf198;" 
d="M208 400q86 0 147 -61t61 -147t-61 -147t-147 -61t-147 61t-61 147t61 147t147 61zM204 96q9 0 15 6t6 15q0 20 -21 20q-9 0 -15.5 -5.5t-6.5 -14.5t6.5 -15t15.5 -6zM244 193q28 17 28 44q0 23 -17.5 37t-45.5 14q-29 0 -46.5 -15t-18.5 -40h36q2 25 26 25q11 0 19 -6.5
t8 -15.5q0 -15 -24 -29q-26 -16 -23 -44v-8h35v8q0 16 23 30z" />
    <glyph glyph-name="uniF199" unicode="&#xf199;" horiz-adv-x="420" 
d="M378 314q17 0 29.5 -12.5t12.5 -30.5v-245q0 -18 -12.5 -30t-30.5 -12h-336q-17 0 -29 12t-12 30v245q0 18 12.5 30.5t29.5 12.5h46q-4 14 -4 21q0 26 18.5 45.5t44.5 19.5q34 0 53 -30l10 -14l10 14q18 28 53 28q26 0 44.5 -18.5t18.5 -44.5q0 -7 -4 -21h46zM274 357
q-9 0 -15 -6t-6 -15t6 -15t15 -6t15 6t6 15t-6 15t-15 6zM146 357q-9 0 -15 -6t-6 -15t6 -15t15 -6t15 6t6 15t-6 15t-15 6zM42 271v-245h147v229l-50 -69l-34 24l44 61h-107zM378 26v245h-107l44 -61l-34 -24l-50 69v-229h147z" />
    <glyph glyph-name="uniF19A" unicode="&#xf19a;" horiz-adv-x="288" 
d="M109 42q0 4 3 2l12 -7q4 -3 0 -7l-7 -4q-1 -1 -2 -0.5t-1 1.5zM175 27q0 -1 -1 -1.5t-2 0.5l-7 4q-3 4 0 7l12 7q2 1 3 0t0 -2zM77 206q3 1 5 0q16 -15 36 -19q3 -1 3.5 -3.5t-1.5 -3.5l-37 -23l-7 -4q-1 -1 -2 -0.5t-1 1.5l-4 12l-9 29q0 2 1 2q10 3 16 9zM81 137
q2 2 4 0l39 -24q4 -3 0 -7l-28 -16q-1 -1 -2 -0.5t-1 1.5l-14 45zM146 99l42 -26q2 -1 0 -3l-42 -26q-2 -2 -4 0l-41 26h-1q-2 2 0 3v1l42 25q2 2 4 0zM185 151q3 -3 0 -6l-39 -24q-2 -2 -4 0l-38 24q-3 3 0 6l38 24q2 2 4 0zM206 206q3 2 6 0q5 -5 18 -9l-10 -31l-4 -12
q0 -1 -1 -1.5t-2 0.5l-7 4l-37 23q-2 1 -2 3.5t3 3.5q20 4 36 19zM121 6q-1 3 1 4l20 13q2 2 4 0l20 -13q3 -2 2 -4l-2 -5q-7 -19 -22 -19q-6 0 -11.5 4.5t-8.5 9.5l-2 5zM165 106q-5 4 0 7l39 24q2 2 4 0h1q1 0 1 -3l-15 -44q0 -1 -1 -1.5t-2 0.5zM264 280q5 5 10 0
q14 -12 14 -30q0 -16 -12 -28t-28 -12q-25 0 -37 12q-3 1 -5 0q-23 -20 -62 -20t-62 20q-2 1 -5 0q-13 -12 -37 -12q-16 0 -28 12t-12 28q0 20 17 32q3 2 5 0q8 -8 20 -13q1 -1 2 0t0 3l-4 6q-9 14 -6 29q7 41 37.5 68t72.5 27t73 -27t38 -67q3 -15 -7 -30l-4 -6q-1 -2 0 -3
t2 0q9 4 18 11z" />
    <glyph glyph-name="uniF19B" unicode="&#xf19b;" 
d="M304 392q47 -1 79.5 -34t32.5 -79q0 -69 -48 -133q-27 -36 -67 -74.5t-67 -59.5l-26 -20q-100 72 -160 154q-48 64 -48 133q0 46 32.5 79t79.5 34v0h1q61 0 95 -52q34 52 95 52h1v0zM346 163q42 58 42 116q0 36 -24 60q-25 25 -60 25h-1q-21 0 -41 -11q-19 -11 -30 -28
q-8 -13 -24 -13q-15 0 -23 13q-11 16 -31 28q-20 11 -41 11h-1q-34 0 -59 -25t-25 -60q0 -58 42 -116q47 -63 138 -136q91 73 138 136z" />
    <glyph glyph-name="uniF19C" unicode="&#xf19c;" 
d="M65 136q-3 0 -5 2.5t0 5.5l95 154q1 2 4 2t5 -2l96 -154q2 -3 0 -5.5t-5 -2.5h-190zM259 194q-1 3 0 6l26 32q1 2 4 2t5 -2l62 -88q2 -3 0 -5.5t-5 -2.5h-53q-3 0 -4 2zM303 280q-14 -2 -23.5 8t-7.5 23q1 10 8 17t17 8q13 2 23 -8t8 -23q-1 -10 -8 -17t-17 -8zM384 400
q14 0 23 -9t9 -23v-352q0 -14 -9 -23t-23 -9h-352q-14 0 -23 9t-9 23v352q0 14 9 23t23 9h352zM381 120v237q0 8 -8 8h-330q-8 0 -8 -8v-237q0 -8 8 -8h330q8 0 8 8z" />
    <glyph glyph-name="uniF19D" unicode="&#xf19d;" 
d="M304 392q47 -1 79.5 -34t32.5 -79q0 -69 -48 -133q-27 -36 -67 -74.5t-67 -59.5l-26 -20q-100 72 -160 154q-48 64 -48 133q0 46 32.5 79t79.5 34v0h1q61 0 95 -52q34 52 95 52h1v0zM346 163q42 58 42 116q0 36 -24 60q-25 25 -60 25h-1q-21 0 -41 -11q-19 -11 -30 -28
l-1 -1q-23 -34 -23 -75v-205q0 -5 4.5 -7t8.5 1q84 69 125 125z" />
    <glyph glyph-name="uniF19E" unicode="&#xf19e;" horiz-adv-x="448" 
d="M230 249l70 -136q1 -2 -0.5 -4.5t-4.5 -2.5l-161 14q-8 0 -3 7l92 123q4 4 7 -1zM335 184l46 -78q2 -2 0 -5t-5 -3l-45 4l-3 3l-26 49q-1 2 1 6l25 25q4 4 7 -1zM346 224q-11 0 -18.5 8.5t-5.5 19.5q3 19 23 19q11 0 18.5 -8.5t5.5 -19.5q-3 -19 -23 -19zM423 319
q11 -1 18.5 -10t6.5 -20l-26 -296q-1 -11 -9.5 -18.5t-19.5 -6.5l-298 26q-11 1 -18 9.5t-6 19.5l1 17l-16 -1q-11 -1 -19.5 6t-9.5 18l-27 297q-1 11 6.5 19.5t18.5 9.5l297 27q11 1 19.5 -6.5t9.5 -18.5l6 -67zM56 147l26 3l15 170q1 11 9.5 18.5t19.5 6.5l202 -18l-5 53
q0 6 -7 6l-280 -25q-6 0 -6 -8l18 -200q0 -6 8 -6zM418 283q0 7 -6 7l-52 5l-30 2l-198 17q-7 0 -7 -6l-14 -156l-3 -44q0 -7 6 -7l260 -23l19 -1q7 0 7 6z" />
    <glyph glyph-name="uniF19F" unicode="&#xf19f;" 
d="M187 276q0 8 6.5 14t14.5 6t14.5 -6t6.5 -14t-6.5 -14t-14.5 -6t-14.5 6t-6.5 14zM189 240h38v-144h-38v144zM208 372q-74 0 -127 -53t-53 -127t53 -127t127 -53t127 53t53 127t-53 127t-127 53zM208 400q86 0 147 -61t61 -147t-61 -147t-147 -61t-147 61t-61 147t61 147
t147 61z" />
    <glyph glyph-name="uniF1A0" unicode="&#xf1a0;" 
d="M208 400q86 0 147 -61t61 -147t-61 -147t-147 -61t-147 61t-61 147t61 147t147 61zM227 96v144h-38v-144h38zM208 256q8 0 14.5 6t6.5 14t-6.5 14t-14.5 6t-14.5 -6t-6.5 -14t6.5 -14t14.5 -6z" />
    <glyph glyph-name="uniF1A1" unicode="&#xf1a1;" 
d="M302 384q48 0 81 -33t33 -82q0 -29 -10.5 -55.5t-40 -60.5t-52.5 -56t-75 -70l-30 -27l-30 27q-52 48 -75 70t-52.5 56t-40 60.5t-10.5 55.5q0 49 33 82t81 33q57 0 94 -44q37 44 94 44zM221 55q95 88 123 122q40 50 40 92q0 35 -24 59t-58 24q-43 0 -70 -32l-24 -30
l-24 30q-27 32 -70 32q-34 0 -58 -24t-24 -59q0 -42 40 -92q28 -34 123 -122l4 -4l9 -8l9 8z" />
    <glyph glyph-name="uniF1A2" unicode="&#xf1a2;" 
d="M302 384q48 0 81 -33t33 -82q0 -29 -10.5 -55.5t-40 -60.5t-52.5 -56t-75 -70l-30 -27l-30 27q-52 48 -75 70t-52.5 56t-40 60.5t-10.5 55.5q0 49 33 82t81 33q57 0 94 -44q37 44 94 44zM208 42q105 97 136 135q40 50 40 92q0 35 -24 59t-58 24q-42 0 -70 -33l-24 -29
v-248z" />
    <glyph glyph-name="uniF1A3" unicode="&#xf1a3;" horiz-adv-x="320" 
d="M50 368q-8 0 -13 5t-5 13t5 13t13 5h220q8 0 13 -5t5 -13t-5 -13t-13 -5h-220zM302 348q8 0 13 -5t5 -13q0 -16 -16 -18v-300q0 -10 -7 -17t-17 -7h-88q-8 0 -8 8v40q0 8 -8 8h-32q-8 0 -8 -8v-40q0 -8 -8 -8h-88q-10 0 -17 7t-7 17v300q-16 2 -16 18q0 8 5 13t13 5h284z
M96 84v16q0 8 -8 8h-16q-8 0 -8 -8v-16q0 -8 8 -8h16q8 0 8 8zM96 148v16q0 8 -8 8h-16q-8 0 -8 -8v-16q0 -8 8 -8h16q8 0 8 8zM96 212v16q0 8 -8 8h-16q-8 0 -8 -8v-16q0 -8 8 -8h16q8 0 8 8zM96 276v16q0 8 -8 8h-16q-8 0 -8 -8v-16q0 -8 8 -8h16q8 0 8 8zM176 84v16
q0 8 -8 8h-16q-8 0 -8 -8v-16q0 -8 8 -8h16q8 0 8 8zM176 148v16q0 8 -8 8h-16q-8 0 -8 -8v-16q0 -8 8 -8h16q8 0 8 8zM176 212v16q0 8 -8 8h-16q-8 0 -8 -8v-16q0 -8 8 -8h16q8 0 8 8zM176 276v16q0 8 -8 8h-16q-8 0 -8 -8v-16q0 -8 8 -8h16q8 0 8 8zM256 84v16q0 8 -8 8
h-16q-8 0 -8 -8v-16q0 -8 8 -8h16q8 0 8 8zM256 148v16q0 8 -8 8h-16q-8 0 -8 -8v-16q0 -8 8 -8h16q8 0 8 8zM256 212v16q0 8 -8 8h-16q-8 0 -8 -8v-16q0 -8 8 -8h16q8 0 8 8zM256 276v16q0 8 -8 8h-16q-8 0 -8 -8v-16q0 -8 8 -8h16q8 0 8 8z" />
    <glyph glyph-name="uniF1A4" unicode="&#xf1a4;" 
d="M213 299h203v-299h-416v384h213v-85zM85 43v42h-42v-42h42zM85 128v43h-42v-43h42zM85 213v43h-42v-43h42zM85 299v42h-42v-42h42zM170 43v42h-42v-42h42zM170 128v43h-42v-43h42zM170 213v43h-42v-43h42zM170 299v42h-42v-42h42zM373 43v213h-160v-43h43v-42h-43v-43h43
v-43h-43v-42h160zM336 213v-42h-43v42h43zM336 128v-43h-43v43h43z" />
    <glyph glyph-name="uniF1A5" unicode="&#xf1a5;" 
d="M416 400q-1 -19 -27 -53l-121 -162l8 -160l-36 -41l-52 102l-10 -8l-4 -82l-33 -6l-48 60l-53 -26l26 53l-60 48l6 33l82 4l8 10l-102 52l41 36l160 -8q146 109 162 121q15 12 28 18.5t19 7.5z" />
    <glyph glyph-name="uniF1A6" unicode="&#xf1a6;" horiz-adv-x="384" 
d="M208 384q8 0 8 -8v-72q0 -8 -8 -8h-12q-3 0 -7.5 2.5t-4.5 5.5v72q0 8 8 8h16zM370 318q14 -14 14 -34v-252q0 -14 -9 -23t-23 -9h-320q-14 0 -23 9t-9 23v320q0 14 9 23t23 9h32q16 0 16 -16v-80q0 -16 16 -16h128q16 0 16 16v80q0 16 16 16h28q20 0 34 -14zM258 48v96
q0 16 -18 16h-160q-18 0 -18 -16v-96q0 -16 18 -16h160q18 0 18 16z" />
    <glyph glyph-name="uniF1A7" unicode="&#xf1a7;" 
d="M297 230q50 0 84.5 -35.5t34.5 -86.5t-35 -87.5t-84 -36.5t-84 36.5t-35 87.5q0 27 9 48l-10 17q-1 3 3 15t3 15q-2 8 -11 11q-5 1 -16.5 -4.5t-14.5 -5.5q-5 1 -13 9t-9 15q0 3 6 17t-1 17q-6 4 -10 3.5t-10.5 -3.5t-9.5 -3q-7 0 -16 9t-9 19q0 4 2 12.5t1 11.5
q-1 9 -10 12q-2 1 -17.5 -1t-18.5 4q-2 2 -9 8.5t-16 15.5q-6 6 28 40q12 10 21 10q8 0 15 -7q13 -15 194 -167q12 4 38 4zM320 48q14 0 23 9t9 23t-9 23t-23 9t-23 -9t-9 -23t9 -23t23 -9z" />
    <glyph glyph-name="uniF1A8" unicode="&#xf1a8;" horiz-adv-x="480" 
d="M432 80h48q0 -15 -20 -23q-22 -9 -48 -9h-344q-27 0 -49 10q-19 8 -19 22h48v239q0 7 5 12t12 5h350q7 0 12 -5t5 -12v-239zM240 328q-4 0 -4 -4t4 -4t4 4t-4 4zM66 312q-2 0 -2 -2v-212q0 -2 2 -2h348q2 0 2 2v212q0 2 -2 2h-348zM282 72q10 0 10 8h-104q0 -2 3.5 -5
t6.5 -3h84z" />
    <glyph glyph-name="uniF1A9" unicode="&#xf1a9;" horiz-adv-x="384" 
d="M299 384l85 -85v-256q0 -18 -12.5 -30.5t-30.5 -12.5h-298q-18 0 -30.5 12.5t-12.5 30.5v298q0 18 12.5 30.5t30.5 12.5h256zM192 43q26 0 45 19t19 45t-19 45t-45 19t-45 -19t-19 -45t19 -45t45 -19zM256 256v85h-213v-85h213z" />
    <glyph glyph-name="uniF1AA" unicode="&#xf1aa;" 
d="M406 69q8 -1 9.5 -11t-3 -18.5t-11.5 -7.5q-20 1 -62 14q-15 -23 -38 -34q-17 -8 -44 -12t-71.5 7t-79.5 43q-73 67 -99 226q-14 86 -4 106q2 4 5 1q36 -39 87 -52.5t100.5 -21.5t78.5 -32q43 -35 65.5 -89t10.5 -107q4 -4 56 -12zM314 62q10 10 10 24q-108 36 -194 108
q-3 2 -5.5 -0.5t0.5 -5.5q97 -99 189 -126z" />
    <glyph glyph-name="uniF1AB" unicode="&#xf1ab;" horiz-adv-x="448" 
d="M320 168h-192q-8 0 -8 8v32q0 8 8 8h192q8 0 8 -8v-32q0 -8 -8 -8zM346 86v212q0 9 6.5 15.5t15.5 6.5t15.5 -6.5t6.5 -15.5v-212q0 -9 -6.5 -15.5t-15.5 -6.5t-15.5 6.5t-6.5 15.5zM428 256q8 0 14 -6t6 -14v-88q0 -8 -6 -14t-14 -6h-12q-8 0 -8 8v112q0 8 8 8h12z
M102 86q0 -9 -6.5 -15.5t-15.5 -6.5t-15.5 6.5t-6.5 15.5v212q0 9 6.5 15.5t15.5 6.5t15.5 -6.5t6.5 -15.5v-212zM32 256q8 0 8 -8v-112q0 -8 -8 -8h-12q-8 0 -14 6t-6 14v88q0 8 6 14t14 6h12z" />
    <glyph glyph-name="uniF1AC" unicode="&#xf1ac;" 
d="M386 132l30 -29l-45 -45l30 -30l-30 -29l-29 29l-45 -44l-30 30l-29 -30l-30 30l74 74l-178 178l-74 -74l-30 30l30 30l-30 29l44 45l-29 30l29 29l30 -29l45 44l30 -30l29 30l30 -30l-74 -74l178 -178l74 74l30 -30z" />
    <glyph glyph-name="uniF1AE" unicode="&#xf1ae;" horiz-adv-x="415" 
d="M347 189q0 1 -1 3v1q1 1 1 2q0 -1 -0.5 -1t-0.5 -1t0.5 -2t0.5 -2zM411 178q4 0 4 -4q-7 -75 -60.5 -128.5t-128.5 -60.5q-5 0 -5 4v50q0 14 -13 14q-15 0 -15 -14v-50q0 -4 -4 -4q-75 7 -128.5 60.5t-60.5 128.5q0 4 4 4h50q14 0 14 13q0 15 -14 15h-50q-4 0 -4 4
q7 75 60.5 128.5t128.5 60.5q4 0 4 -4v-50q0 -14 14 -14t14 14v50q0 4 5 4q75 -7 128.5 -60.5t60.5 -128.5q0 -4 -4 -4h-50q-12 0 -14 -11q0 -1 -1 -3v-1q1 -1 1 -2q2 -11 13 -11h51zM207 122q29 0 49.5 20.5t20.5 49.5t-20.5 49.5t-49.5 20.5t-49.5 -20.5t-20.5 -49.5
t20.5 -49.5t49.5 -20.5z" />
    <glyph glyph-name="uniF1B0" unicode="&#xf1b0;" horiz-adv-x="320" 
d="M280 256q16 0 28 -12t12 -28v-192q0 -16 -12 -28t-28 -12h-240q-16 0 -28 12t-12 28v192q0 16 12 28t28 12h24v48q0 40 28.5 68.5t68.5 27.5t67.5 -29t27.5 -68v-47h24zM174 131q18 8 18 29q0 14 -10 23.5t-24 8.5q-12 -1 -20.5 -9t-9.5 -20q-2 -22 18 -32v-69
q0 -14 15 -14q13 0 13 14v69zM228 256v48q0 28 -20 48t-48 20t-48 -20t-20 -48v-48h136z" />
    <glyph glyph-name="uniF1B1" unicode="&#xf1b1;" horiz-adv-x="414" 
d="M368 368q19 0 32.5 -13.5t13.5 -32.5v-260q0 -19 -13.5 -32.5t-32.5 -13.5h-280q-19 0 -32.5 13.5t-13.5 32.5q0 14 14 14t14 -14q0 -8 5 -13t13 -5h280q8 0 13 5t5 13v260q0 8 -5 13t-13 5h-280q-8 0 -13 -5t-5 -13q0 -14 -14 -14t-14 14q0 19 13.5 32.5t32.5 13.5h280z
M175 114l64 64h-225q-14 0 -14 14t14 14h224l-65 64q-10 10 0 20q4 4 10 4t10 -4l84 -84q7 -7 7 -15t-7 -15l-82 -82q-4 -4 -10 -4q-4 0 -10 4q-9 11 0 20z" />
    <glyph glyph-name="uniF1B2" unicode="&#xf1b2;" 
d="M264 76q14 0 14 -14q0 -19 -13.5 -32.5t-32.5 -13.5h-186q-19 0 -32.5 13.5t-13.5 32.5v260q0 19 13.5 32.5t32.5 13.5h186q19 0 32.5 -13.5t13.5 -32.5q0 -14 -14 -14t-14 14q0 8 -5 13t-13 5h-186q-8 0 -13 -5t-5 -13v-260q0 -8 5 -13t13 -5h186q8 0 13 5t5 13
q0 14 14 14zM325 290l84 -84q7 -7 7 -15t-7 -15l-82 -82q-4 -4 -10 -4q-4 0 -10 4q-9 11 0 20l64 64h-257q-14 0 -14 14t14 14h256l-65 64q-10 10 0 20q4 4 10 4t10 -4z" />
    <glyph glyph-name="uniF1B4" unicode="&#xf1b4;" 
d="M414 186q4 -4 0 -8l-57 -58q-5 -4 -9 0l-163 163q-19 19 -42 22q-21 3 -36 -12q-16 -16 -13 -37t23 -41l163 -163q4 -4 0 -9l-58 -57q-2 -2 -4 -2t-4 2l-173 172q-41 41 -41 100q0 60 41 101t101 41q59 0 100 -41zM228 68l-30 -30l20 -20l30 30zM352 152l30 30l-20 20
l-30 -30z" />
    <glyph glyph-name="uniF1B6" unicode="&#xf1b6;" 
d="M406 238q10 -10 10 -25v-213q0 -14 -9 -23t-23 -9h-352q-14 0 -23 9t-9 23v212q0 16 10 26l159 162q15 16 39 16t39 -16q155 -158 159 -162zM386 196q8 8 2 22t-18 14h-324q-13 0 -18.5 -14t2.5 -22l81 -85q1 -1 0 -3l-75 -80q-9 -9 0 -18q4 -4 9 -4t9 4l151 161q3 3 6 0
l151 -161q4 -4 9 -4t9 4q9 9 0 18l-75 80q-1 2 0 3z" />
    <glyph glyph-name="uniF1B8" unicode="&#xf1b8;" 
d="M413 301q1 1 2 0t1 -2v-219q0 -14 -9 -23t-23 -9h-352q-14 0 -23 9t-9 23v219q0 1 1 2t2 0l108 -110q1 -1 0 -3l-75 -80q-9 -9 0 -18q4 -4 9 -4t9 4l75 80q1 2 3 0l18 -18q25 -25 58 -25q36 0 58 24l18 19q2 2 3 0l75 -80q4 -4 9 -4t9 4q9 9 0 18l-75 80q-1 2 0 3z
M208 153q-23 0 -39 16l-157 160q9 7 20 7h352q10 0 20 -7l-157 -160q-15 -16 -39 -16z" />
    <glyph glyph-name="uniF1B9" unicode="&#xf1b9;" 
d="M402 400q14 0 14 -14v-108q0 -14 -14 -14q-13 0 -13 14v75l-91 -90q40 -48 40 -110q0 -36 -13 -66q-11 -28 -36 -53q-26 -26 -54 -37q-30 -13 -66 -13t-66 13q-27 11 -53 37t-37 53q-13 30 -13 66t13 66q11 28 37 54q25 25 53 36q30 13 66 13q62 0 110 -40l90 91h-75
q-14 0 -14 13q0 14 14 14h108zM311 153q0 58 -42 100t-100 42t-100 -42t-42 -100t42 -100t100 -42t100 42t42 100z" />
    <glyph glyph-name="uniF1BB" unicode="&#xf1bb;" horiz-adv-x="228" 
d="M114 341v0q-19 0 -32.5 13.5t-13.5 32.5t13.5 32t32.5 13t32 -13t13 -32q0 -20 -13 -32q-12 -14 -32 -14zM79 -48q-11 0 -19 8t-8 22l1 278h-10v-105q0 -12 -6 -18q-7 -7 -15 -7q-9 0 -16 7q-6 6 -6 18v122q0 21 14 38q15 18 39 18h122q24 0 39 -18q14 -17 14 -38v-122
q0 -12 -7 -18q-7 -7 -15 -7q-9 0 -16 7q-6 5 -6 18v105h-9v-278q0 -14 -8.5 -22t-19.5 -8t-18.5 8t-8.5 22v141h-12v-141q-1 -14 -9.5 -22t-19.5 -8z" />
    <glyph glyph-name="uniF1BD" unicode="&#xf1bd;" horiz-adv-x="384" 
d="M0 376q0 5 4 7.5t8 -0.5l70 -51q3 -3 3 -7v-316q0 -5 -4 -7.5t-8 0.5l-69 50q-4 4 -4 7v317zM105 325q0 4 3 7l62 36q4 3 8 0.5t4 -7.5v-316q0 -4 -3 -7l-62 -37q-4 -3 -8 -0.5t-4 7.5v317zM372 382q4 3 8 1t4 -7v-317q0 -3 -4 -7l-69 -50q-4 -3 -8 -0.5t-4 7.5v316
q0 4 3 7zM202 362q0 5 4 7.5t8 -0.5l62 -37q3 -3 3 -7v-316q0 -5 -4 -7.5t-8 0.5l-62 37q-3 3 -3 7v316z" />
    <glyph glyph-name="uniF1BF" unicode="&#xf1bf;" 
d="M2 324h126q2 0 2 -2v-118q0 -2 -3 -2l-104 29q-23 7 -23 31v60q0 2 2 2zM208 166zM156 322q0 2 2 2h106q2 0 2 -2v-124q0 -2 -1 -2l-56 -16h-1l-50 14q-2 0 -2 2v126zM286 322q0 2 2 2h126q2 0 2 -2v-60q0 -24 -23 -31l-104 -30q-3 0 -3 2v119zM0 384q0 14 9 23t23 9h352
q14 0 23 -9t9 -23v-38q0 -2 -2 -2h-412q-2 0 -2 2v38zM208 140zM152 96q0 23 16.5 39.5t39.5 16.5t39.5 -16.5t16.5 -39.5t-16.5 -39.5t-39.5 -16.5t-39.5 16.5t-16.5 39.5zM303 181q33 -38 33 -85q0 -53 -37.5 -90.5t-90.5 -37.5t-90.5 37.5t-37.5 90.5q0 48 33 86l51 -14
q-40 -25 -40 -72q0 -34 25 -59t59 -25t59 25t25 59q0 47 -40 72zM208 152q23 0 39.5 -16.5t16.5 -39.5t-16.5 -39.5t-39.5 -16.5t-39.5 16.5t-16.5 39.5t16.5 39.5t39.5 16.5z" />
    <glyph glyph-name="uniF1C1" unicode="&#xf1c1;" 
d="M42 261q0 -41 34 -72q2 -2 0.5 -5t-4.5 -2q-51 17 -61 64q-11 0 -11 15q0 13 10 15q5 30 25.5 50t48.5 20q2 0 3 -2t-1 -4q-44 -27 -44 -79zM402 345q14 -36 14 -82q0 -45 -14 -81q0 -2 -1 -4.5t-2 -3.5q-10 -22 -21 -33q-18 -18 -35 -18q-5 0 -20 5q-10 3 -26.5 10.5
t-26.5 11t-26 7t-33 3.5q-7 0 -11.5 -10t-5.5 -27t-1 -32.5t1 -35.5t1 -27v-10v-8v-7v-6t-0.5 -4t-1 -3.5t-1.5 -2.5t-2.5 -1.5t-3.5 -1t-5 -0.5q-13 0 -38 9t-30 15q-7 8 -4 36q1 10 12.5 60t12.5 55q1 6 -1.5 9t-9 6.5t-10.5 6.5q-44 26 -44 80q0 28 15 51t39 34v0v0v0v0
v0v0h1v0v0h1v0h1v0h1v0h1h1h1h1h1h1h1h1h1h1h1h1h1h1h1h1h1h1h1h1h1h1h1h1h1h1h1h9q32 0 77 13.5t77 32.5q11 8 26 8q19 0 34 -15q13 -13 22 -32q1 -2 3 -8zM376 188q14 31 14 75q0 43 -14 75q-9 25 -27 25q-15 0 -24 -25q-13 -29 -13 -75t13 -75q10 -28 24 -28q7 0 15 8
t12 20z" />
    <glyph glyph-name="uniF1C3" unicode="&#xf1c3;" horiz-adv-x="384" 
d="M368 272h-352q-16 0 -16 16t16 16h352q16 0 16 -16t-16 -16zM368 176h-352q-16 0 -16 16t16 16h352q16 0 16 -16t-16 -16zM368 80h-352q-16 0 -16 16t16 16h352q16 0 16 -16t-16 -16z" />
    <glyph glyph-name="uniF1C6" unicode="&#xf1c6;" horiz-adv-x="288" 
d="M203 244q-12 0 -12 -12t12 -12h73q12 0 12 -12t-12 -12h-73q-12 0 -12 -12t12 -12h77q8 0 8 -8q0 -20 -8 -39q-2 -5 -7 -5h-258q-5 0 -7 5q-8 19 -8 39q0 8 8 8h77q12 0 12 12t-12 12h-73q-12 0 -12 12t12 12h73q12 0 12 12t-12 12h-73q-12 0 -12 12t12 12h73q12 0 12 12
t-12 12h-77q-8 0 -8 8q1 35 21 63.5t52 42.5q11 4 11 -7v-36q0 -12 12 -12t12 12v41q0 12 12 12t12 -12v-57q0 -12 12 -12t12 12v57q0 12 12 12t12 -12v-41q0 -12 12 -12t12 12v36q0 11 11 7q32 -14 52 -42t21 -64q0 -8 -8 -8h-77q-12 0 -12 -12t12 -12h73q12 0 12 -12
t-12 -12h-73zM30 89q-5 7 3 7h222q2 0 3.5 -2.5t0.5 -4.5q-29 -34 -76 -40q-7 0 -7 -8v-41q0 -14 -9 -23t-23 -9t-23 9t-9 23v41q0 8 -7 8q-46 6 -75 40z" />
    <glyph glyph-name="uniF1C8" unicode="&#xf1c8;" horiz-adv-x="384" 
d="M192 230q16 0 27 -11t11 -27t-11 -27t-27 -11t-27 11t-11 27t11 27t27 11zM38 230q16 0 27 -11t11 -27t-11 -27t-27 -11t-27 11t-11 27t11 27t27 11zM346 230q16 0 27 -11t11 -27t-11 -27t-27 -11t-27 11t-11 27t11 27t27 11z" />
    <glyph glyph-name="uniF1C9" unicode="&#xf1c9;" horiz-adv-x="80" 
d="M80 312q0 -16 -12 -28t-28 -12t-28 12t-12 28t12 28t28 12t28 -12t12 -28zM80 72q0 -16 -12 -28t-28 -12t-28 12t-12 28t12 28t28 12t28 -12t12 -28zM80 192q0 -16 -12 -28t-28 -12t-28 12t-12 28t12 28t28 12t28 -12t12 -28z" />
    <glyph glyph-name="uniF1CB" unicode="&#xf1cb;" horiz-adv-x="448" 
d="M444 202q4 -4 4 -10t-4 -10l-79 -79q-10 -10 -20 0t0 20l55 55h-162l1 -162l55 55q10 9 19 0q10 -10 0 -20l-79 -79q-10 -10 -20 0l-79 79q-10 10 0 20t20 0l55 -55v162h-162l55 -55q10 -10 0 -20t-20 0l-79 79q-10 10 0 20l79 79q10 10 20 0t0 -20l-55 -55h162v162
l-55 -55q-10 -10 -20 0t0 20l79 79q10 10 20 0l79 -79q10 -10 0 -20q-9 -9 -19 0l-55 55l-1 -162h162l-55 55q-10 10 0 20t20 0z" />
    <glyph glyph-name="uniF1D1" unicode="&#xf1d1;" horiz-adv-x="320" 
d="M160 -8q-23 0 -35.5 14.5t-12.5 38.5h96q0 -24 -12.5 -38.5t-35.5 -14.5zM59 393l227 -388q7 -12 -5 -19q-4 -2 -7 -2q-7 0 -12 7l-228 388q-7 12 5 19q4 2 7 2h1q9 0 12 -7zM200 64h-40h-140q-12 0 -17.5 11t1.5 21q2 2 13 14.5t16 21t11 32t6 55.5q0 47 13 79zM316 96
q7 -10 1.5 -21t-17.5 -11h-30l-166 284q13 8 26 11q6 1 6 6v3q0 10 7 17t17 7t17.5 -7t7.5 -17v-3q0 -5 6 -6q33 -8 56 -42t23 -98q0 -32 6 -55.5t11 -32t16 -21t13 -14.5z" />
    <glyph glyph-name="uniF1D3" unicode="&#xf1d3;" horiz-adv-x="320" 
d="M160 -8q-23 0 -35.5 14.5t-12.5 38.5h96q0 -24 -12.5 -38.5t-35.5 -14.5zM316 96q7 -10 1.5 -21t-17.5 -11h-140h-140q-12 0 -17.5 11t1.5 21q2 2 13 14.5t16 21t11 32t6 55.5q0 64 23 98t56 42q7 2 7 6v3q0 10 7 17t17 7t17 -7t7 -17v-3q0 -4 7 -6q33 -8 56 -42t23 -98
q0 -32 6 -55.5t11 -32t16 -21t13 -14.5z" />
    <glyph glyph-name="uniF1D5" unicode="&#xf1d5;" 
d="M208 400q86 0 147 -61t61 -147t-61 -147t-147 -61t-147 61t-61 147t61 147t147 61zM120 35q41 -23 88 -23q48 0 89 23l-50 86q-2 3 2 5q33 22 35 61q0 3 4 3h100v2q0 74 -53 127q-15 15 -36 28l-51 -87q-2 -4 -5 -2q-16 8 -35 8q-21 0 -36 -8q-4 -2 -5 1l-51 88
q-18 -11 -35 -28q-53 -53 -53 -127v-2h100q4 0 4 -3q2 -39 35 -61q4 -2 2 -5zM152 192q0 23 16.5 39.5t39.5 16.5t39.5 -16.5t16.5 -39.5t-16.5 -39.5t-39.5 -16.5t-39.5 16.5t-16.5 39.5z" />
    <glyph glyph-name="uniF1D7" unicode="&#xf1d7;" 
d="M180 148q9 -9 18 0l134 134q4 -7 4 -18v-224q0 -16 -12 -28t-28 -12h-256q-16 0 -28 12t-12 28v224q0 16 12 28t28 12h256q11 0 18 -4l-134 -134q-9 -9 0 -18zM412 380q4 -4 4 -10v-98q0 -13 -13 -13t-13 13v67l-58 -57q-6 12 -18 18l57 58h-67q-13 0 -13 13t13 13h97
q7 0 11 -4z" />
    <glyph glyph-name="uniF1D9" unicode="&#xf1d9;" 
d="M251 72q10 24 37 24t37 -24h75q16 0 16 -16t-16 -16h-75q-10 -24 -37 -24t-37 24h-235q-16 0 -16 16t16 16h235zM91 208q10 24 37 24t37 -24h235q16 0 16 -16t-16 -16h-235q-10 -24 -37 -24t-37 24h-75q-16 0 -16 16t16 16h75zM251 344q10 24 37 24t37 -24h75
q16 0 16 -16t-16 -16h-75q-10 -24 -37 -24t-37 24h-235q-16 0 -16 16t16 16h235z" />
    <glyph glyph-name="uniF1DB" unicode="&#xf1db;" 
d="M311 370q6 0 8 -2q44 -28 70.5 -75t26.5 -101t-26 -100.5t-71 -75.5q-2 -2 -8 -2h-206q-6 0 -8 2q-45 29 -71 75.5t-26 100.5t26.5 101t70.5 75q2 2 8 2h206zM145 177q4 0 4 4v111q0 4 -4 4h-22q-4 0 -4 -4v-111q0 -4 4 -4h22zM234 58q4 0 4 4v41q0 12 -9 21t-21 9
t-21 -9.5t-9 -21.5v-40q0 -4 4 -4h52zM293 192q4 0 4 4v81q0 4 -4 4h-22q-4 0 -4 -4v-81q0 -4 4 -4h22z" />
    <glyph glyph-name="uniF1DD" unicode="&#xf1dd;" 
d="M404 399q5 2 9 -1t3 -8l-82 -400q-2 -12 -12 -4l-99 72q-7 5 -12 -2l-38 -45q-2 -3 -4.5 -3.5t-4.5 1.5t-2 5l11 78q1 10 7 18l179 219q3 5 -3 7q-3 0 -4 -1l-208 -203q-7 -9 -7 -18l8 -91q0 -5 -6 -2q-3 1 -4 4l-53 109q-2 5 -9 8l-68 26q-5 2 -5 7.5t4 7.5z" />
    <glyph glyph-name="uniF1DF" unicode="&#xf1df;" horiz-adv-x="480" 
d="M152 384q16 0 16 -16v-30q0 -16 -16 -16t-16 16v30q0 16 16 16zM63 232q0 -16 -16 -16h-31q-16 0 -16 16t16 16h31q16 0 16 -16zM64 299l-21 21q-11 11 0 22q4 4 12 4q7 0 11 -4l20 -21q11 -11 0 -22q-5 -5 -11 -5t-11 5zM255 343q11 -11 0 -22l-20 -21q-4 -4 -11 -4
t-11 4h-1q-11 11 0 22l21 21q5 5 11 5t11 -5zM77 175q6 0 11 -5q11 -11 0 -22l-20 -21q-5 -5 -11 -5q-7 0 -12 5q-11 11 0 23l21 20q5 5 11 5zM387 189q38 0 65.5 -28t27.5 -66t-27.5 -66.5t-65.5 -28.5h-226q-30 0 -52 23t-22 54q0 29 19.5 51.5t47.5 24.5v1v10v6
q3 62 56 92q5 3 15 7q21 8 41 8q40 0 71 -25.5t39 -63.5q2 0 5 0.5t4 0.5h2zM135 164q-26 5 -42.5 25t-16.5 47q0 30 21.5 52t51.5 22q37 0 58 -28h-1q-2 -1 -14 -8q-55 -32 -58 -93v-6q0 -1 0.5 -5t0.5 -5v-1z" />
    <glyph glyph-name="uniF1E1" unicode="&#xf1e1;" horiz-adv-x="384" 
d="M321 62q56 -20 63 -52q2 -10 -8 -10h-184h-184q-10 0 -8 10q7 32 63 52q9 4 29.5 7t22.5 3q19 5 24 11q2 2 2 47q0 2 -2 4l-10 20q-4 12 -7 33q0 4 -4 6q-6 4 -8 13q-1 6 -5 16.5t-3 17.5q0 5 4 9q4 3 2 8q-6 24 -6 45q-1 33 23.5 57.5t66.5 24.5t66.5 -24.5t23.5 -57.5
q0 -21 -6 -45q-2 -5 2 -8q4 -4 4 -9q1 -7 -3 -17.5t-5 -16.5q-2 -9 -8 -13q-4 -2 -4 -6q-3 -21 -7 -33q-2 -5 -7 -12l-4 -8q-1 -1 -1 -4q0 -45 2 -47q5 -6 24 -11q2 0 22.5 -3t29.5 -7zM373 154q11 0 11 -10t-11 -10h-27v-28q0 -10 -10 -10q-11 0 -11 10v28h-27
q-10 0 -10 10t10 10h27v28q0 10 11 10q10 0 10 -10v-28h27z" />
    <glyph glyph-name="uniF1E2" unicode="&#xf1e2;" horiz-adv-x="448" 
d="M0 272q0 13 9.5 22.5t23.5 9.5h381q14 0 24 -9.5t10 -22.5v-159q0 -13 -10 -23t-24 -10h-381q-13 0 -23 10t-10 23v159zM23 177q0 -4 4 -4t4 4v30q0 4 -4 4t-4 -4v-30zM437 192q0 18 -17 18q-8 0 -13 -5t-5 -13q0 -17 18 -17q17 0 17 17zM392 288h-341v-192h341v192z
M410 192q0 10 10 10t10 -10t-10 -10t-10 10z" />
    <glyph glyph-name="uniF1E3" unicode="&#xf1e3;" horiz-adv-x="224" 
d="M192 416q13 0 22.5 -9.5t9.5 -23.5v-381q0 -14 -9.5 -24t-22.5 -10h-159q-13 0 -23 10t-10 24v381q0 13 10 23t23 10h159zM97 393q-4 0 -4 -4t4 -4h30q4 0 4 4t-4 4h-30zM112 -17q18 0 18 17q0 8 -5 13t-13 5q-17 0 -17 -18q0 -17 17 -17zM206 32q2 0 2 2v329q0 2 -2 2
h-188q-2 0 -2 -2v-329q0 -2 2 -2h188z" />
    <glyph glyph-name="uniF1E5" unicode="&#xf1e5;" horiz-adv-x="288" 
d="M144 400q60 0 102 -39t42 -95q0 -46 -36 -116.5t-72 -117.5l-36 -48q-6 7 -15.5 19.5t-34.5 49t-44 70t-34.5 74t-15.5 69.5q0 56 42 95t102 39zM144 209q20 0 33.5 13.5t13.5 33.5t-13.5 33.5t-33.5 13.5t-33.5 -13.5t-13.5 -33.5t13.5 -33.5t33.5 -13.5z" />
    <glyph glyph-name="uniF1E7" unicode="&#xf1e7;" horiz-adv-x="384" 
d="M383 338q4 -11 -4 -26q-6 -11 -23 -14l-158 -295q-2 -3 -5 -3q-5 0 -6 3l-158 296q-16 2 -22 14q0 1 -1 1l-1 2q-7 14 -4 21q2 8 27 20q58 27 165 27q104 0 165 -27q21 -10 25 -19zM117 225q5 13 -2 26q-6 11 -20 16q-8 2 -11 2h-1q-5 0 -3 -6q2 -3 25 -47q2 -5 7 0
q4 7 5 9zM233 128l26 48q2 2 -1 5q-9 11 -25 11q-14 0 -24 -9.5t-10 -23.5q0 -13 8.5 -22t21.5 -11q2 0 4 2zM268 305q6 4 8 7q3 5 -3 7q-24 5 -51 6q-6 0 -4 -5q1 -3 5 -9q7 -11 21 -12q1 0 2.5 -0.5t2.5 -0.5q9 0 19 7z" />
    <glyph glyph-name="uniF1EB" unicode="&#xf1eb;" 
d="M415 96q3 -10 -1 -17q-4 -9 -22 -9q-63 0 -208 81q-78 43 -137 92q-57 48 -45 67q6 10 23 10q23 0 83 -24q2 -1 2.5 -3.5t-1.5 -3.5l-11 -10q-2 -2 -4 -1q-32 12 -57 19q-3 1 -4.5 -1.5t0.5 -4.5q8 -11 39 -35q4 -4 12.5 -10t10.5 -7q12 31 41 52q32 23 70 23
q52 0 86 -33q37 -35 37 -87q0 -39 -25 -72q25 -10 28 -11q21 -8 44 -13q2 -1 3.5 1.5t0.5 4.5q-8 10 -42 36q-4 2 -2 6l5 13q2 5 7 2q42 -32 55 -47q10 -11 12 -18zM264 94q4 -2 4 -5t-3 -5q-31 -20 -66 -20q-51 0 -86 35q-36 36 -36 85l1 2v2q0 4 3 5q1 0 3 1q1 0 3 -2
q48 -32 84 -53q26 -15 93 -45z" />
    <glyph glyph-name="uniF1ED" unicode="&#xf1ed;" horiz-adv-x="384" 
d="M0 248q0 8 8 8h96q8 0 8 -8v-208q0 -8 -8 -8h-96q-8 0 -8 8v208zM136 352h112q8 0 8 -8v-304q0 -8 -8 -8h-119h-1v312q0 8 8 8zM376 192q8 0 8 -8v-144q0 -8 -8 -8h-96q-8 0 -8 8v144q0 8 8 8h96z" />
    <glyph glyph-name="uniF1EF" unicode="&#xf1ef;" horiz-adv-x="384" 
d="M316 336q68 -57 68 -145q0 -79 -56.5 -135t-135.5 -56t-135.5 56t-56.5 135q0 88 68 145q5 5 12 5q6 0 13 -7q5 -7 5 -13q0 -8 -7 -13q-55 -46 -55 -117q0 -64 46 -109.5t110 -45.5t110 45.5t46 109.5q0 70 -55 117q-7 5 -7 13q0 6 5 13t14 7q6 0 11 -5zM193 174
q-8 0 -13.5 5.5t-5.5 12.5v174q0 7 5.5 12.5t13.5 5.5q7 0 12.5 -5t5.5 -13v-174q0 -8 -5.5 -13t-12.5 -5z" />
    <glyph glyph-name="uniF1F1" unicode="&#xf1f1;" 
d="M80 200q0 16 16 16h224q16 0 16 -16v-200q0 -16 -16 -16h-224q-16 0 -16 16v200zM336 400q16 0 16 -16v-20q0 -4 -4 -4h-280q-4 0 -4 4v20q0 16 16 16h256zM384 336q14 0 23 -9t9 -22v-175q0 -14 -9 -23t-23 -9h-16q-8 0 -8 8v106q0 12 -8 20t-20 8h-248q-12 0 -20 -8
t-8 -20v-106q0 -8 -8 -8h-16q-14 0 -23 9t-9 23v175q0 13 9 22t23 9h352z" />
    <glyph glyph-name="uniF1F3" unicode="&#xf1f3;" 
d="M126 384q14 0 14 -14t-14 -14h-60q-14 0 -26 -12q-12 -14 -12 -26v-60q0 -14 -14 -14t-14 14v59q0 28 19.5 47.5t47.5 19.5h59zM350 384q27 0 46.5 -19.5t19.5 -46.5v-60q0 -14 -14 -14t-14 14v60q0 12 -12 26q-12 12 -26 12h-60q-14 0 -14 14t14 14h60zM126 28
q14 0 14 -14t-14 -14h-60q-27 0 -46.5 19.5t-19.5 46.5v60q0 14 14 14t14 -14v-60q0 -12 12 -26q12 -12 26 -12h60zM402 140q14 0 14 -14v-59q0 -28 -19.5 -47.5t-47.5 -19.5h-59q-14 0 -14 14t14 14h60q14 0 26 12q12 14 12 26v60q0 14 14 14z" />
    <glyph glyph-name="uniF1F5" unicode="&#xf1f5;" horiz-adv-x="320" 
d="M113 352q13 0 22 -9t9 -22v-192q0 -54 -28 -94q-3 -3 -7 -3h-40q-5 0 -7.5 4.5t1.5 8.5q30 35 32 74q0 9 -8 9h-39q-20 0 -34 14t-14 34v128q0 20 14 34t34 14h65zM289 352q13 0 22 -9t9 -22v-192q0 -54 -28 -94q-3 -3 -7 -3h-40q-5 0 -7.5 4.5t1.5 8.5q30 35 32 74
q0 9 -8 9h-39q-20 0 -34 14t-14 34v128q0 20 14 34t34 14h65z" />
    <glyph glyph-name="uniF1F6" unicode="&#xf1f6;" 
d="M208 372q-74 0 -127 -53t-53 -127t53 -127t127 -53t127 53t53 127t-53 127t-127 53zM208 400q86 0 147 -61t61 -147t-61 -147t-147 -61t-147 61t-61 147t61 147t147 61z" />
    <glyph glyph-name="uniF1F7" unicode="&#xf1f7;" 
d="M208 372q-74 0 -127 -53t-53 -127t53 -127t127 -53t127 53t53 127t-53 127t-127 53zM208 400q86 0 147 -61t61 -147t-61 -147t-147 -61t-147 61t-61 147t61 147t147 61zM316 300q44 -44 44 -108t-44 -108t-108 -44t-108 44t-44 108t44 108t108 44t108 -44z" />
    <glyph glyph-name="uniF1F9" unicode="&#xf1f9;" horiz-adv-x="448" 
d="M28 192q0 -77 54 -136q4 -4 4 -10t-4 -10q-6 -4 -10 -4q-6 0 -10 4q-62 67 -62 156t62 156q4 4 10 4t10 -4q9 -9 0 -20q-54 -59 -54 -136zM386 348q62 -67 62 -156q0 -88 -62 -155q-5 -5 -10 -5q-7 0 -10 4q-9 9 0 20q54 59 54 136t-54 136q-4 4 -4 10t4 10q6 4 10 4
q6 0 10 -4zM127 100q4 -4 4 -10q0 -5 -4 -9q-5 -5 -10 -5t-10 5v0q-45 47 -45 110q0 66 47 113q4 4 10 4q5 0 10 -5q9 -11 0 -19q-39 -37 -39 -93q0 -54 37 -91zM339 304q47 -47 47 -112q0 -64 -45 -111q-3 -5 -10 -5q-5 0 -10 5q-9 9 0 19q37 37 37 92t-39 92v0q-9 10 0 19
q5 5 10 5q6 0 10 -4zM175 265q9 -11 0 -20q-23 -23 -23 -53q0 -31 22 -53q4 -4 4 -10t-4 -10t-10 -4t-10 4q-30 30 -30 72q0 43 31 74q4 4 10 4t10 -4zM294 265q30 -30 30 -74q0 -43 -29 -72q-4 -4 -10 -4t-10 4t-4 10t4 10q21 21 21 52q0 32 -22 54q-10 10 0 20q4 4 10 4
t10 -4zM224 230q16 0 27 -11t11 -27t-11 -27t-27 -11t-27 11t-11 27t11 27t27 11z" />
    <glyph glyph-name="uniF1FA" unicode="&#xf1fa;" 
d="M298 208q16 0 16 -16t-16 -16h-180q-16 0 -16 16t16 16h180zM208 372q-74 0 -127 -53t-53 -127t53 -127t127 -53t127 53t53 127t-53 127t-127 53zM208 400q86 0 147 -61t61 -147t-61 -147t-147 -61t-147 61t-61 147t61 147t147 61z" />
    <glyph glyph-name="uniF1FB" unicode="&#xf1fb;" 
d="M208 400q86 0 147 -61t61 -147t-61 -147t-147 -61t-147 61t-61 147t61 147t147 61zM298 176q16 0 16 16t-16 16h-180q-16 0 -16 -16t16 -16h180z" />
    <glyph glyph-name="uniF1FC" unicode="&#xf1fc;" horiz-adv-x="257" 
d="M241 208q16 0 16 -16t-16 -16h-225q-6 0 -11 5t-5 11q0 16 16 16h225z" />
    <glyph glyph-name="uniF1FD" unicode="&#xf1fd;" horiz-adv-x="352" 
d="M0 128v16h352v-16h-352zM0 184v16h352v-16h-352zM0 240v16h352v-16h-352z" />
    <glyph glyph-name="uniF1FE" unicode="&#xf1fe;" horiz-adv-x="384" 
d="M273 290q6 -6 6 -15t-6 -15l-36 -36q-4 -4 -10 -4t-10 4t-4 11q0 5 4 9l16 16h-155q-20 0 -35 -15t-15 -35v-16q0 -14 -14 -14t-14 14v16q0 32 23 55t55 23h157l-16 16q-4 4 -4 9q0 9 7 13q2 2 3 2q8 2 14 -4zM370 204q14 0 14 -14v-16q0 -32 -23 -55t-55 -23h-157
l16 -16q4 -4 4 -9q0 -9 -7 -13q-1 -1 -3 -1q-9 -2 -14 3l-34 34q-6 6 -6 15q0 10 6 16l36 35q4 4 10 4t10 -4t4 -11q0 -5 -4 -9l-16 -16h155q20 0 35 15t15 35v16q0 14 14 14z" />
    <glyph glyph-name="uniF1FF" unicode="&#xf1ff;" horiz-adv-x="352" 
d="M338 368q14 0 14 -14v-110q0 -14 -14 -14t-14 14v76l-276 -276h76q14 0 14 -14t-14 -14h-110q-14 0 -14 14v110q0 14 14 14t14 -14v-76l276 276h-76q-14 0 -14 14t14 14h110z" />
    <glyph glyph-name="uniF201" unicode="&#xf201;" horiz-adv-x="288" 
d="M272 384q16 0 16 -11v-357q0 -16 -16 -16t-16 16v128q-32 23 -32 80q0 62 14.5 111t33.5 49zM176 384h8q24 -107 24 -128q0 -33 -32 -45v-195q0 -16 -16 -16t-16 16v195q-32 12 -32 45q0 9 6 41t12 59l6 28h8l-10 -104q0 -8 8 -8t8 8l6 104h8l6 -104q0 -8 8 -8t8 8z
M48 384q19 0 33.5 -39.5t14.5 -88.5q0 -33 -32 -45v-195q0 -16 -16 -16t-16 16v195q-32 12 -32 45q0 49 14.5 88.5t33.5 39.5z" />
    <glyph glyph-name="uniF202" unicode="&#xf202;" horiz-adv-x="384" 
d="M6 183l60 59q4 4 10 4t10 -4t4 -10t-4 -10l-41 -40h261q20 0 35 15q15 13 15 35v48q0 14 14 14t14 -14v-48q0 -32 -23 -55t-55 -23h-262l40 -40q4 -4 4 -10t-4 -10q-6 -4 -10 -4q-6 0 -10 4l-58 58q-6 6 -6 15q0 10 6 16z" />
    <glyph glyph-name="uniF203" unicode="&#xf203;" horiz-adv-x="384" 
d="M378 183q6 -6 6 -16q0 -8 -7 -15l-57 -58q-4 -4 -10 -4q-4 0 -10 4q-4 4 -4 10t4 10l40 40h-262q-32 0 -55 23t-23 55v48q0 14 14 14t14 -14v-48q0 -20 15 -35t35 -15h261l-41 40q-4 4 -4 10t4 10t10 4t10 -4z" />
    <glyph glyph-name="uniF205" unicode="&#xf205;" horiz-adv-x="384" 
d="M191 155q-53 1 -91 39t-39 90q-1 55 38 94t94 38q52 -1 90.5 -39.5t39.5 -90.5q1 -55 -38 -93.5t-94 -37.5zM187 359q-28 -1 -47 -21t-21 -48q-2 -33 21.5 -56.5t56.5 -21.5q28 2 47.5 21t20.5 47q2 33 -21.5 57t-56.5 22zM192 140q18 0 27 2q2 1 3.5 -1.5t0.5 -4.5
l-31 -69l-43 -94q-2 -5 -7.5 -5t-7.5 4l-39 65q-4 4 -7 4h-80q-5 0 -7 4t0 8l76 133q2 5 6 1q44 -47 109 -47zM300 187q3 3 7 -1l76 -133q2 -4 0 -8t-7 -4h-80q-3 0 -7 -4l-39 -65q-2 -4 -7.5 -4t-7.5 5l-34 74v4l45 97q0 3 2 3q29 12 52 36z" />
    <glyph glyph-name="uniF207" unicode="&#xf207;" 
d="M208 400q86 0 147 -61t61 -147t-61 -147t-147 -61t-147 61t-61 147t61 147t147 61zM134 248q-20 -2 -22 -22q-1 -11 7 -19t19 -7q20 2 22 22q1 11 -7 19t-19 7zM133 96q39 4 77 4l73 -4q9 0 13.5 7t0.5 15q-12 26 -36 42.5t-53 16.5t-53 -16.5t-36 -42.5q-4 -8 0.5 -15
t13.5 -7zM282 200q20 2 22 22q1 11 -7 19t-19 7q-20 -2 -22 -22q-1 -11 7 -19t19 -7z" />
    <glyph glyph-name="uniF209" unicode="&#xf209;" horiz-adv-x="448" 
d="M64 178q0 4 4 6.5t8 0.5l132 -75q4 -4 4 -7v-94q0 -4 -4 -6.5t-8 -0.5l-132 76q-4 4 -4 7v93zM248 2q-4 -2 -8 0.5t-4 6.5v94q0 5 4 7l132 76q4 2 8 -0.5t4 -6.5v-94q0 -5 -4 -7zM216 383q8 5 16 0l212 -129q4 -4 4 -8v-171q0 -10 -10 -10q-11 0 -11 10v153q0 5 -1.5 7
t-5.5 0l-188 -108q-8 -5 -16 0l-212 118q-4 2 -4 7t4 7z" />
    </font>
</defs>
</svg>
